<svg width="17" height="17" viewBox="0 0 17 17" fill="none" xmlns="http://www.w3.org/2000/svg">
<g id="vuesax/linear/copy">
<g id="copy">
<path id="Vector" d="M11.3334 9.13734V12.1123C11.3334 14.5915 10.3417 15.5832 7.86258 15.5832H4.88758C2.40841 15.5832 1.41675 14.5915 1.41675 12.1123V9.13734C1.41675 6.65817 2.40841 5.6665 4.88758 5.6665H7.86258C10.3417 5.6665 11.3334 6.65817 11.3334 9.13734Z" stroke="#6D48FF" stroke-width="1.3" stroke-linecap="round" stroke-linejoin="round"/>
<path id="Vector_2" d="M15.5834 4.88734V7.86234C15.5834 10.3415 14.5917 11.3332 12.1126 11.3332H11.3334V9.13734C11.3334 6.65817 10.3417 5.6665 7.86258 5.6665H5.66675V4.88734C5.66675 2.40817 6.65841 1.4165 9.13758 1.4165H12.1126C14.5917 1.4165 15.5834 2.40817 15.5834 4.88734Z" stroke="#6D48FF" stroke-width="1.3" stroke-linecap="round" stroke-linejoin="round"/>
</g>
</g>
</svg>
