<svg width="16" height="16" viewBox="0 0 16 16" fill="none" xmlns="http://www.w3.org/2000/svg">
<path id="Star 2" d="M7.32834 1.35183C7.60411 0.796793 8.39589 0.796792 8.67166 1.35183L10.4813 4.99403C10.5905 5.21383 10.8004 5.36629 11.0431 5.40223L15.0663 5.9978C15.6794 6.08856 15.9241 6.84158 15.4814 7.27538L12.5767 10.1219C12.4014 10.2937 12.3212 10.5404 12.3621 10.7824L13.0389 14.7927C13.142 15.4038 12.5014 15.8692 11.9521 15.5823L8.34723 13.6994C8.12969 13.5857 7.87031 13.5857 7.65277 13.6994L4.04791 15.5823C3.49856 15.8692 2.85799 15.4038 2.96113 14.7927L3.63794 10.7824C3.67878 10.5404 3.59863 10.2937 3.42333 10.1219L0.518607 7.27538C0.0759499 6.84158 0.320622 6.08856 0.933717 5.9978L4.95686 5.40223C5.19965 5.36629 5.40949 5.21383 5.5187 4.99403L7.32834 1.35183Z" fill="#FCAF23"/>
</svg>
