<svg width="24" height="24" viewBox="0 0 24 24" fill="none" xmlns="http://www.w3.org/2000/svg">
<g id="paypal_icon-icons.com_62739 1">
<g id="Group">
<path id="Vector" d="M7.11095 20.9719C5.65313 20.9766 4.19063 20.9813 2.73282 20.9766C2.33907 20.9766 2.08595 20.6298 2.15157 20.2266C2.39532 18.6751 2.62501 17.1235 2.86876 15.5766C3.08907 14.1844 3.32813 12.7923 3.54845 11.3954C3.70782 10.3876 3.84845 9.37976 4.00782 8.37194C4.2422 6.886 4.48595 5.40007 4.72501 3.91413C4.86095 3.06101 4.98751 2.20788 5.11876 1.35476C5.20313 0.796943 5.64376 0.417255 6.21563 0.417255C8.68126 0.417255 11.1516 0.398505 13.6172 0.42663C14.9625 0.440693 16.2984 0.609443 17.5219 1.23288C18.7922 1.87038 19.5656 2.90632 19.8188 4.31257C19.9359 4.96882 19.8938 5.62507 19.7672 6.28132C19.2422 6.01413 18.6891 5.84069 18.1172 5.72819C17.4047 5.58757 16.6734 5.55007 15.9469 5.54069C14.1141 5.52194 12.2766 5.52663 10.4438 5.54069C10.0547 5.54538 9.70782 5.70475 9.55313 6.10319C9.48282 6.286 9.45938 6.49225 9.43126 6.69382C9.3047 7.46257 9.18282 8.236 9.06095 9.00944C8.9672 9.60475 8.86407 10.2001 8.77501 10.7954C8.66251 11.5501 8.56407 12.3094 8.41876 13.0594C8.37189 13.3079 8.26876 13.561 8.34376 13.8282C8.28751 13.9969 8.23595 14.1657 8.20782 14.3438C8.07657 15.211 7.94063 16.0782 7.8047 16.9454C7.64063 17.9954 7.48595 19.0501 7.30782 20.1001C7.25157 20.3907 7.27032 20.7001 7.11095 20.9719Z" fill="#002987"/>
<path id="Vector_2" d="M7.11095 20.9723C7.27032 20.7051 7.25157 20.391 7.29845 20.1004C7.47657 19.0504 7.63126 18.0004 7.79532 16.9457C7.93126 16.0785 8.0672 15.2113 8.19845 14.3441C8.22657 14.166 8.27813 13.9973 8.33438 13.8285C8.58751 13.4348 8.93907 13.2613 9.4172 13.266C10.6125 13.266 11.8078 13.327 12.9984 13.177C14.0625 13.0457 15.0797 12.7738 16.0266 12.2676C17.4844 11.4848 18.4781 10.2895 19.1016 8.77539C19.3969 8.05352 19.6313 7.3082 19.7297 6.53008C19.7391 6.51133 19.7438 6.49258 19.7531 6.47852C19.7625 6.43164 19.7719 6.38477 19.7813 6.33789C20.8969 6.92852 21.4922 7.87539 21.6516 9.11289C21.7828 10.1301 21.6281 11.1191 21.375 12.1035C21.1734 12.8863 20.8641 13.6223 20.4234 14.2973C19.7063 15.4035 18.7078 16.1723 17.4656 16.6129C16.8188 16.8426 16.1531 16.9738 15.4734 17.0535C14.9063 17.1191 14.3391 17.1191 13.7719 17.1238C13.2 17.1238 12.8344 17.4379 12.7547 18.0004C12.5813 19.1863 12.4078 20.3723 12.2016 21.5582C12.1313 21.9613 12.075 22.3691 12.0047 22.7676C11.9156 23.2551 11.5688 23.5457 11.0766 23.5457C9.88126 23.5457 8.68595 23.5457 7.49063 23.5457C7.03595 23.5457 6.81563 23.2832 6.89063 22.8426C6.9797 22.2988 7.06876 21.7598 7.15782 21.216C7.17188 21.127 7.19532 21.0379 7.11095 20.9723Z" fill="#0085CC"/>
<path id="Vector_3" d="M19.7859 6.3278C19.7765 6.37467 19.7671 6.42155 19.7578 6.46842C19.7484 6.48717 19.7437 6.50592 19.7343 6.51998C19.6359 7.29811 19.4015 8.04342 19.1062 8.7653C18.4828 10.2794 17.489 11.4747 16.0312 12.2575C15.0843 12.7637 14.0625 13.0356 13.0031 13.1669C11.8125 13.3122 10.6171 13.2559 9.42183 13.2559C8.9437 13.2559 8.59214 13.4247 8.33902 13.8184C8.26402 13.5559 8.36714 13.2981 8.41402 13.0497C8.55464 12.2997 8.65777 11.5403 8.77027 10.7856C8.85933 10.1903 8.96245 9.59498 9.0562 8.99967C9.17808 8.22623 9.29995 7.45748 9.42652 6.68405C9.45933 6.48717 9.47808 6.28092 9.54839 6.09342C9.70308 5.69498 10.05 5.53092 10.439 5.53092C12.2718 5.51686 14.1093 5.51217 15.9421 5.53092C16.6687 5.5403 17.3953 5.5778 18.1125 5.71842C18.6843 5.83092 19.2421 6.00436 19.7625 6.27155C19.7718 6.29967 19.7812 6.31373 19.7859 6.3278Z" fill="#00186A"/>
</g>
</g>
</svg>
