<svg width="25" height="24" viewBox="0 0 25 24" fill="none" xmlns="http://www.w3.org/2000/svg">
<g id="vuesax/bulk/bookmark-2">
<g id="bookmark-2">
<path id="Vector" d="M17.6667 4.96V12.08C17.6667 14.07 16.2567 14.84 14.5267 13.8L13.2067 13C12.9067 12.82 12.4267 12.82 12.1267 13L10.8067 13.8C9.07666 14.84 7.66666 14.07 7.66666 12.08V4.99C7.67666 3 8.67666 2 10.6667 2H14.6667C16.6467 2 17.6467 2.99 17.6667 4.96Z" fill="#797979"/>
<path id="Vector_2" opacity="0.4" d="M22.6667 11.9V14.93C22.6667 19.98 20.6667 22 15.6667 22H9.66666C4.66666 22 2.66666 19.98 2.66666 14.93V11.9C2.66666 7.65996 4.07666 5.55996 7.48666 4.98996H7.66666V12.08C7.66666 14.07 9.07666 14.84 10.8067 13.8L12.1267 13C12.4267 12.82 12.9067 12.82 13.2067 13L14.5267 13.8C16.2567 14.84 17.6667 14.07 17.6667 12.08V4.95996C21.2067 5.47996 22.6667 7.58996 22.6667 11.9Z" fill="#797979"/>
</g>
</g>
</svg>
