<svg width="20" height="20" viewBox="0 0 20 20" fill="none" xmlns="http://www.w3.org/2000/svg">
<g id="star 1">
<g id="star">
<path id="Vector" d="M18.7025 8.59469L14.8094 12.3897L15.7288 17.7497C15.7688 17.9841 15.6725 18.2209 15.48 18.3609C15.3713 18.4403 15.2419 18.4803 15.1125 18.4803C15.0132 18.4803 14.9132 18.4566 14.8219 18.4084L10.0082 15.8778L5.19503 18.4078C4.98503 18.5191 4.7294 18.5009 4.5369 18.3603C4.3444 18.2203 4.24816 17.9834 4.28816 17.7491L5.20753 12.3891L1.31378 8.59469C1.14378 8.42844 1.0819 8.17969 1.15565 7.95406C1.2294 7.72844 1.42503 7.56281 1.66065 7.52844L7.04128 6.74719L9.44753 1.87094C9.65816 1.44406 10.3582 1.44406 10.5688 1.87094L12.975 6.74719L18.3557 7.52844C18.5913 7.56281 18.7869 7.72781 18.8607 7.95406C18.9344 8.18031 18.8725 8.42781 18.7025 8.59469Z" fill="#FCAF23"/>
</g>
</g>
</svg>
