<svg width="30" height="30" viewBox="0 0 30 30" fill="none" xmlns="http://www.w3.org/2000/svg">
<path d="M26.4844 17.6953H9.66797C8.21408 17.6953 7.03125 16.5125 7.03125 15.0586V12.3047H8.78906V15.0586C8.78906 15.5432 9.18334 15.9375 9.66797 15.9375H11.616C11.5159 15.6553 11.4647 15.358 11.4649 15.0586V12.3047H13.2227V15.0586C13.2227 15.5432 13.617 15.9375 14.1016 15.9375H16.0496C15.9495 15.6553 15.8984 15.358 15.8985 15.0586V12.3047H17.6563V15.0586C17.6563 15.5432 18.0506 15.9375 18.5352 15.9375H20.4833C20.3831 15.6553 20.332 15.358 20.3321 15.0586V12.3047H22.0899V15.0586C22.0899 15.5432 22.4842 15.9375 22.9688 15.9375H26.4844V10.5469H3.51562V12.3633H1.75781V8.78906H0V21.2109H1.75781V17.6367H3.51562V22.9688H12.3633V26.4844H26.4844V17.6953ZM28.2422 19.4531H30V24.7266H28.2422V19.4531ZM26.4844 7.91016C26.4844 6.45627 25.3015 5.27344 23.8477 5.27344H22.9102V3.51562H21.1523V5.27344H19.3945V3.51562H17.6367V5.27344H15.8789V3.51562H14.1211V5.27344H12.3633V3.51562H10.6055V5.27344H8.84766V3.51562H7.08984V5.27344H6.15234C4.69846 5.27344 3.51562 6.45627 3.51562 7.91016V8.78906H26.4844V7.91016Z" fill="#6D48FF"/>
</svg>
