<svg width="30" height="30" viewBox="0 0 30 30" fill="none" xmlns="http://www.w3.org/2000/svg">
<g clip-path="url(#clip0_55_5621)">
<path d="M4.71658 20.5283C2.11588 20.5283 0 22.6442 0 25.2449C0 27.8457 2.11588 29.9615 4.71658 29.9615C7.31733 29.9615 9.43321 27.8456 9.43321 25.2449C9.43321 22.6442 7.31733 20.5283 4.71658 20.5283ZM4.71658 28.0914C3.14707 28.0914 1.87018 26.8145 1.87018 25.2449C1.87018 23.6753 3.14707 22.3984 4.71658 22.3984C6.28608 22.3984 7.56303 23.6753 7.56303 25.2449C7.56303 26.8145 6.28608 28.0914 4.71658 28.0914ZM22.2986 26.9243C19.355 24.8015 15.7847 23.6407 12.1452 23.6407H10.986C11.1201 24.1649 11.1877 24.7039 11.1874 25.245C11.1874 27.103 10.4 28.7803 9.14166 29.9616H19.6153L22.2986 26.9243Z" fill="#6D48FF"/>
<path d="M1.36646 19.7162C2.34397 19.1227 3.49029 18.7806 4.71503 18.7806C7.05417 18.7806 9.10731 20.0282 10.2442 21.8929H12.1436C15.8774 21.8929 19.5451 23.0021 22.6501 25.0439C22.183 20.2439 18.0041 16.2796 12.9596 16.3077H6.2353C4.00071 16.3077 2.09206 17.7297 1.36646 19.7162ZM4.71503 24.1592C4.11281 24.1592 3.62285 24.6492 3.62285 25.2515C3.62285 25.8537 4.11281 26.3437 4.71503 26.3437C5.31726 26.3437 5.80727 25.8537 5.80727 25.2515C5.80727 24.6492 5.31726 24.1592 4.71503 24.1592ZM13.0182 14.5535C13.7103 14.5535 14.388 14.6154 15.0467 14.7332V9.59637C15.0467 6.50578 17.5521 4.00035 20.6427 4.00035C23.7333 4.00035 26.2387 6.50578 26.2387 9.59637V10.8959C26.2387 11.0576 26.2056 11.2175 26.1414 11.3659C26.0771 11.5143 25.9832 11.6479 25.8653 11.7586L23.3635 14.0896L26.0139 16.74L29.6207 13.408C29.7399 13.2973 29.8349 13.1632 29.8999 13.014C29.9649 12.8649 29.9985 12.704 29.9985 12.5413V9.50854C29.9985 4.27816 25.7584 0.0380859 20.528 0.0380859C15.2976 0.0380859 11.0575 4.27816 11.0575 9.50854V14.5535H13.0182V14.5535ZM29.9963 29.6172C29.9963 28.5445 29.1267 27.675 28.054 27.675H23.9745L21.9545 29.9614H29.6522C29.7434 29.9614 29.831 29.9251 29.8955 29.8606C29.96 29.796 29.9963 29.7085 29.9963 29.6172ZM8.08758 14.5535V13.3318C8.08758 12.8474 7.69487 12.4547 7.21047 12.4547C6.72607 12.4547 6.33336 12.8474 6.33336 13.3318V14.5536L8.08758 14.5535Z" fill="#6D48FF"/>
<path d="M19.7168 16.7546C21.0802 17.7481 22.2177 19.0337 23.0364 20.5189L24.8133 18.742C24.9014 18.6539 24.9508 18.5345 24.9508 18.41C24.9508 18.2855 24.9014 18.1661 24.8133 18.0781L21.9353 15.2C21.8473 15.1119 21.7278 15.0625 21.6033 15.0625C21.4788 15.0625 21.3594 15.1119 21.2714 15.2L19.7168 16.7546Z" fill="#6D48FF"/>
</g>
<defs>
<clipPath id="clip0_55_5621">
<rect width="30" height="30" fill="white"/>
</clipPath>
</defs>
</svg>
