<svg width="30" height="30" viewBox="0 0 30 30" fill="none" xmlns="http://www.w3.org/2000/svg">
<g clip-path="url(#clip0_55_5638)">
<path d="M13.4967 2.8317C11.6827 4.64571 10.7496 7.0017 10.6787 9.37844L12.2537 7.80356C14.9951 5.06213 19.456 5.06213 22.1974 7.80356C24.9388 10.545 24.9388 15.0058 22.1974 17.7473L20.6224 19.3222C22.9992 19.2514 25.3551 18.3184 27.1693 16.5043C30.9449 12.7287 30.9448 6.60731 27.1693 2.8317C23.3937 -0.943901 17.2723 -0.943901 13.4967 2.8317Z" fill="#6D48FF"/>
<path d="M20.9536 9.04648C18.8902 6.98322 15.5592 6.9831 13.4958 9.04648L9.76701 12.7753L8.52394 11.5323L9.14544 10.9109C9.48898 10.5674 9.48898 10.0115 9.14544 9.66798L5.41654 5.93908C4.38839 4.91093 2.71578 4.91093 1.68763 5.93908C0.659604 6.96722 0.659604 8.63984 1.68763 9.66798L5.41654 13.3968C5.76007 13.7403 6.31607 13.7403 6.65949 13.3968L7.28099 12.7754L8.52394 14.0183L5.07687 17.4654C4.90285 17.6394 4.81583 17.8508 4.81595 18.0994L4.81583 20.2125L3.51429 21.514L8.48615 26.4859L9.78769 25.1843L11.9008 25.1842C12.1494 25.1843 12.3606 25.0973 12.5346 24.9233L20.9537 16.5043C23.017 14.4409 23.0169 11.1097 20.9536 9.04648ZM14.7387 12.7754C14.3906 12.4273 14.3908 11.8804 14.7387 11.5324L15.9818 10.2894C16.3298 9.94132 16.8767 9.94132 17.2247 10.2894C17.5727 10.6375 17.5727 11.1843 17.2247 11.5324L15.9818 12.7754C15.6337 13.1233 15.0869 13.1234 14.7387 12.7754ZM19.7105 14.0183L18.4676 15.2612C18.1197 15.6093 17.5727 15.6094 17.2246 15.2612C16.8766 14.9132 16.8766 14.3663 17.2246 14.0183L18.4676 12.7753C18.8156 12.4273 19.3625 12.4273 19.7105 12.7753C20.0587 13.1234 20.0587 13.6702 19.7105 14.0183ZM6.00013 28.9718L7.24308 27.7287L2.27123 22.7568L1.02828 23.9999C-0.342759 25.3709 -0.342759 27.6007 1.02828 28.9718C2.39931 30.3427 4.6291 30.3427 6.00013 28.9718Z" fill="#6D48FF"/>
</g>
<defs>
<clipPath id="clip0_55_5638">
<rect width="30" height="30" fill="white"/>
</clipPath>
</defs>
</svg>
