<svg width="30" height="30" viewBox="0 0 30 30" fill="none" xmlns="http://www.w3.org/2000/svg">
<g clip-path="url(#clip0_55_5616)">
<path d="M25.5334 13.5321C24.9291 11.7468 23.2563 10.5469 21.3706 10.5469H8.71787C6.83385 10.5469 5.161 11.7459 4.55848 13.5209L4.26545 14.3504C5.09625 14.1446 5.12408 14.0625 6.15234 14.0625H23.8477C25.0147 14.0625 24.8776 14.1242 25.8297 14.3705L25.5334 13.5321ZM6.87592 0.356667C6.54633 -0.118879 5.75836 -0.118879 5.42877 0.356609C4.85373 1.19005 3.51562 3.24827 3.51562 4.3718C3.51562 5.82575 4.6984 7.00852 6.15234 7.00852C7.60629 7.00852 8.78906 5.82575 8.78906 4.3718C8.78906 3.24827 7.45096 1.19005 6.87592 0.356667ZM24.5712 0.356667C24.2416 -0.118821 23.4537 -0.118821 23.1241 0.356667C22.549 1.19005 21.2109 3.24827 21.2109 4.3718C21.2109 5.82575 22.3937 7.00852 23.8477 7.00852C25.3016 7.00852 26.4844 5.82575 26.4844 4.3718C26.4844 3.24827 25.1463 1.19005 24.5712 0.356667ZM15.7236 0.356667C15.394 -0.118821 14.6061 -0.118821 14.2765 0.356667C13.7014 1.19005 12.3633 3.24827 12.3633 4.3718C12.3633 5.82575 13.5461 7.00852 15 7.00852C16.4539 7.00852 17.6367 5.82575 17.6367 4.3718C17.6367 3.24827 16.2986 1.19005 15.7236 0.356667ZM23.8477 15.8203H6.15234C6.01166 15.8203 5.39648 15.8554 5.29102 15.9082C2.30273 16.33 0 18.9961 0 22.0899C0 24.2146 1.51061 25.9881 3.51562 26.3957V27.3633C3.51562 28.8172 4.6984 30 6.15234 30H7.91016C9.3641 30 10.5469 28.8172 10.5469 27.3633V26.4844H19.4531V27.3633C19.4531 28.8172 20.6359 30 22.0898 30H23.8477C25.3016 30 26.4844 28.8172 26.4844 27.3633V26.3957C28.4894 25.9881 30 24.2146 30 22.0899C30 18.6412 27.1477 15.8203 23.8477 15.8203ZM5.27344 22.9688C4.30441 22.9688 3.51562 22.18 3.51562 21.2109C3.51562 20.2419 4.30441 19.4531 5.27344 19.4531C6.24246 19.4531 7.03125 20.2419 7.03125 21.2109C7.03125 22.18 6.24246 22.9688 5.27344 22.9688ZM15.8789 24.7266H14.1211V22.9688H15.8789V24.7266ZM18.9258 20.0332C18.4335 20.7715 17.5665 21.2109 16.6699 21.2109H13.4179C12.5215 21.2109 11.6543 20.7715 11.1621 20.0332C10.5738 19.1621 10.1013 18.2514 9.42182 17.5723H20.666C19.9867 18.2516 19.5141 19.162 18.9258 20.0332ZM24.7266 22.9688C23.7575 22.9688 22.9688 22.18 22.9688 21.2109C22.9688 20.2419 23.7575 19.4531 24.7266 19.4531C25.6956 19.4531 26.4844 20.2419 26.4844 21.2109C26.4844 22.18 25.6956 22.9688 24.7266 22.9688Z" fill="#6D48FF"/>
</g>
<defs>
<clipPath id="clip0_55_5616">
<rect width="30" height="30" fill="white"/>
</clipPath>
</defs>
</svg>
