<svg width="30" height="30" viewBox="0 0 30 30" fill="none" xmlns="http://www.w3.org/2000/svg">
<path d="M15.3126 12.9308C15.8868 12.9308 16.4433 13.0994 16.9207 13.4175L17.2724 13.6518C18.5899 14.5321 20.1392 15.0012 21.7237 14.9997C22.0708 14.9997 22.4142 14.9733 22.7546 14.9294C22.7522 14.7195 22.7415 14.5099 22.7225 14.3009L17.9107 12.3763C17.8456 12.3503 17.7864 12.3114 17.7368 12.2619C17.6872 12.2123 17.6482 12.1533 17.6221 12.0882L15.6974 7.27638C15.4678 7.25569 15.2356 7.24121 14.9997 7.24121C14.7638 7.24121 14.5316 7.25569 14.3014 7.27638L12.3768 12.0882C12.3507 12.1533 12.3117 12.2123 12.2621 12.2619C12.2125 12.3114 12.1533 12.3503 12.0882 12.3763L7.27638 14.3009C7.25569 14.5316 7.24121 14.7638 7.24121 14.9997C7.24121 15.2356 7.25569 15.4678 7.27638 15.698L12.0882 17.6226C12.2201 17.6753 12.3241 17.7793 12.3768 17.9107L14.3014 22.7225C14.347 22.7266 14.3935 22.7261 14.439 22.7292C14.4649 22.4825 14.4825 22.2332 14.4825 21.9823C14.4825 20.562 14.0661 19.1867 13.2783 18.0053L12.9008 17.4384C12.5822 16.9605 12.4141 16.404 12.4141 15.8304C12.4146 15.0617 12.7201 14.3246 13.2636 13.781C13.807 13.2374 14.5439 12.9316 15.3126 12.9308Z" fill="#6D48FF"/>
<path d="M7.48535 16.896C7.82978 18.2513 8.53347 19.4885 9.52225 20.4773C10.511 21.4661 11.7483 22.1697 13.1035 22.5142L11.498 18.5015L7.48535 16.896Z" fill="#6D48FF"/>
<path d="M13.2784 25.9594C13.7267 25.2851 14.0574 24.5397 14.2565 23.7549C9.755 23.3758 6.20679 19.5974 6.20679 14.9997C6.20679 10.1512 10.1512 6.20679 14.9997 6.20679C19.7562 6.20679 23.6334 10.0059 23.7787 14.7277C24.6312 14.5036 25.4407 14.14 26.1745 13.6518L26.5263 13.4175C27.0354 13.078 27.639 12.9087 28.2504 12.9338C28.8618 12.9589 29.4496 13.1771 29.9291 13.5572C29.1998 5.96059 22.7836 0 14.9997 0C6.72919 0 0 6.72868 0 14.9997C0 22.5886 5.66628 28.8745 12.9887 29.8609C12.6313 29.3824 12.4308 28.8049 12.415 28.2079C12.3991 27.6108 12.5687 27.0235 12.9003 26.5268L13.2784 25.9594ZM2.06893 17.0687H1.03446V16.0342H2.06893V17.0687ZM2.06893 14.9997H1.03446C1.03446 7.29918 7.29918 1.03446 14.9997 1.03446V2.06893C7.86969 2.06893 2.06893 7.86969 2.06893 14.9997Z" fill="#6D48FF"/>
<path d="M22.5141 13.1035C22.1696 11.7483 21.4659 10.511 20.4772 9.52225C19.4884 8.53347 18.2511 7.82978 16.8959 7.48535L18.5009 11.498L22.5141 13.1035ZM29.3084 26.5335C28.4069 25.1814 27.9305 23.608 27.9305 21.9823C27.9305 20.3567 28.4069 18.7833 29.3084 17.4312L29.686 16.8643C29.9239 16.5056 30.0305 16.0756 29.9876 15.6472C29.9447 15.2188 29.7549 14.8185 29.4506 14.5141C29.1462 14.2096 28.7459 14.0198 28.3175 13.9768C27.8892 13.9338 27.4592 14.0403 27.1004 14.2782L26.7486 14.5125C25.2554 15.5081 23.518 16.0342 21.7237 16.0342C19.9294 16.0342 18.1921 15.5081 16.6988 14.513L16.3471 14.2787C15.9883 14.0407 15.5583 13.9342 15.13 13.9771C14.7016 14.02 14.3013 14.2097 13.9968 14.5141C13.6924 14.8185 13.5026 15.2188 13.4596 15.6471C13.4166 16.0755 13.5231 16.5055 13.7609 16.8643L14.1385 17.4312C15.0406 18.7833 15.5169 20.3567 15.5169 21.9823C15.5169 23.608 15.0406 25.1814 14.139 26.5335L13.7615 27.1004C13.557 27.4066 13.4481 27.7666 13.4485 28.1348C13.4485 29.1538 14.2699 29.9813 15.2852 29.9969H15.3033V29.9989L15.3131 30C15.6825 30 16.0399 29.8919 16.3476 29.687L16.6993 29.4527C17.183 29.133 17.6962 28.8603 18.2319 28.6386L16.2649 27.3274C16.194 27.2799 16.1359 27.2158 16.0957 27.1405C16.0554 27.0653 16.0343 26.9814 16.0342 26.8961V24.8271C16.0342 23.9716 16.7304 23.2754 17.5859 23.2754C17.7679 23.2754 17.9407 23.3127 18.1031 23.3706V19.6548C18.1031 18.7993 18.7993 18.1031 19.6548 18.1031C19.8591 18.1031 20.0531 18.145 20.232 18.2169C20.411 17.5574 21.0084 17.0686 21.7237 17.0686C22.4391 17.0686 23.037 17.5574 23.2154 18.2169C23.3944 18.145 23.5884 18.1031 23.7927 18.1031C24.6482 18.1031 25.3444 18.7993 25.3444 19.6548V20.2672C25.51 20.2059 25.685 20.1737 25.8616 20.172C26.7171 20.172 27.4133 20.8682 27.4133 21.7237V27.4133C27.4133 27.5504 27.359 27.6822 27.2617 27.779L26.3788 28.6619V29.2267C26.5024 29.3007 26.6281 29.3715 26.7486 29.4517L27.1004 29.686C27.4591 29.9239 27.8891 30.0305 28.3175 29.9876C28.7458 29.9447 29.1462 29.7549 29.4506 29.4506C29.755 29.1462 29.9449 28.7459 29.9879 28.3175C30.0308 27.8892 29.9244 27.4592 29.6865 27.1004L29.3084 26.5335ZM7.48535 13.1035L11.498 11.498L13.103 7.48535C11.7479 7.82991 10.5108 8.53366 9.5221 9.52242C8.53342 10.5112 7.82979 11.7484 7.48535 13.1035Z" fill="#6D48FF"/>
<path d="M26.3781 21.724C26.3721 21.5908 26.315 21.4651 26.2187 21.3729C26.1223 21.2808 25.9941 21.2294 25.8608 21.2294C25.7275 21.2294 25.5993 21.2808 25.503 21.3729C25.4066 21.4651 25.3495 21.5908 25.3436 21.724V23.2757H24.3091V19.6551C24.3032 19.5219 24.2461 19.3961 24.1497 19.304C24.0534 19.2119 23.9252 19.1604 23.7919 19.1604C23.6586 19.1604 23.5304 19.2119 23.4341 19.304C23.3377 19.3961 23.2806 19.5219 23.2747 19.6551V23.2757H22.2402V18.6206C22.2342 18.4874 22.1771 18.3617 22.0808 18.2695C21.9844 18.1774 21.8563 18.126 21.723 18.126C21.5897 18.126 21.4615 18.1774 21.3651 18.2695C21.2688 18.3617 21.2117 18.4874 21.2057 18.6206V23.2757H20.1713V19.6551C20.1653 19.5219 20.1082 19.3961 20.0119 19.304C19.9155 19.2119 19.7873 19.1604 19.654 19.1604C19.5207 19.1604 19.3926 19.2119 19.2962 19.304C19.1999 19.3961 19.1428 19.5219 19.1368 19.6551V26.3791H18.1023V24.8274C18.0964 24.6942 18.0393 24.5685 17.9429 24.4763C17.8466 24.3842 17.7184 24.3328 17.5851 24.3328C17.4518 24.3328 17.3236 24.3842 17.2273 24.4763C17.1309 24.5685 17.0738 24.6942 17.0679 24.8274V26.6196L19.9411 28.5349C20.0849 28.6311 20.1713 28.7925 20.1713 28.9652V29.9997H25.3436V28.448C25.3436 28.3109 25.3979 28.179 25.4951 28.0823L26.3781 27.1994V21.724Z" fill="#6D48FF"/>
</svg>
