<svg width="31" height="30" viewBox="0 0 31 30" fill="none" xmlns="http://www.w3.org/2000/svg">
<path d="M10.678 4.0678V1.01695C10.678 0.882093 10.7315 0.752761 10.8269 0.657403C10.9223 0.562046 11.0516 0.508475 11.1864 0.508475H19.322C19.4569 0.508475 19.5862 0.562046 19.6816 0.657403C19.7769 0.752761 19.8305 0.882093 19.8305 1.01695V4.0678C19.8305 4.20265 19.7769 4.33198 19.6816 4.42734C19.5862 4.5227 19.4569 4.57627 19.322 4.57627H11.1864C11.0516 4.57627 10.9223 4.5227 10.8269 4.42734C10.7315 4.33198 10.678 4.20265 10.678 4.0678ZM12.7119 5.59322H17.7966V6.61017H12.7119V5.59322ZM5.07458 14.7208L6.2278 9.81966C6.30448 9.49062 6.48875 9.19657 6.75143 8.98409C7.0141 8.77161 7.34017 8.65285 7.67797 8.64661C7.64491 8.81034 7.62712 8.97966 7.62712 9.15254V11.6949H8.64407V9.15254C8.64407 8.31152 9.32847 7.62712 10.1695 7.62712H20.339C21.18 7.62712 21.8644 8.31152 21.8644 9.15254V11.6949H22.8814V9.15254C22.8814 8.97966 22.8636 8.81034 22.83 8.64712C23.1679 8.65329 23.494 8.7721 23.7568 8.98469C24.0195 9.19729 24.2037 9.4915 24.2802 9.82068L25.4334 14.7219C25.7639 16.1268 25.9317 17.5714 25.9317 19.0144C25.9317 20.0293 25.653 21.0137 25.1303 21.8786C24.3085 21.944 23.5353 22.2943 22.9444 22.8692C22.354 23.4388 21.9806 24.1966 21.8888 25.0119C21.3713 24.7104 20.8222 24.4666 20.2515 24.2847C19.9741 22.46 19.8334 20.6171 19.8305 18.7714V8.64407H18.8136V18.7714C18.8136 20.5246 18.9437 22.2854 19.1868 24.0229C18.7279 23.9412 18.2627 23.8995 17.7966 23.8983H12.7119C12.2451 23.8983 11.7798 23.9425 11.3217 24.0229C11.5647 22.2854 11.6949 20.5246 11.6949 18.7714V8.64407H10.678V18.7714C10.678 20.613 10.5315 22.4639 10.2559 24.2847C9.68524 24.4666 9.1362 24.7104 8.61864 25.0119C8.52693 24.1965 8.15361 23.4387 7.56305 22.8692C6.9725 22.295 6.19979 21.9453 5.37864 21.8807C4.85398 21.0167 4.57644 20.0252 4.57627 19.0144C4.57627 17.5708 4.74407 16.1263 5.07458 14.7208ZM27.9661 26.8668C27.9665 27.2784 27.8857 27.686 27.7284 28.0663C27.5711 28.4466 27.3403 28.7922 27.0493 29.0832C26.7583 29.3742 26.4127 29.605 26.0324 29.7623C25.6521 29.9196 25.2445 30.0004 24.8329 30H5.67559C5.264 30.0005 4.85636 29.9197 4.47601 29.7624C4.09566 29.6052 3.75007 29.3744 3.45903 29.0833C3.16799 28.7923 2.93721 28.4467 2.77992 28.0664C2.62263 27.686 2.5419 27.2784 2.54237 26.8668V25.5519C2.54237 24.121 3.6478 22.9236 5.00644 22.8829C5.347 22.871 5.68642 22.9284 6.0042 23.0514C6.32197 23.1745 6.61149 23.3607 6.85525 23.5988C7.10043 23.8351 7.29521 24.1187 7.42787 24.4323C7.56052 24.7459 7.6283 25.0832 7.62712 25.4237V26.4407C7.62712 27.8425 8.76763 28.983 10.1695 28.983H11.1864V27.9661H10.1695C9.32847 27.9661 8.64407 27.2817 8.64407 26.4407V26.1986C9.83825 25.3678 11.2571 24.9201 12.7119 24.9153H17.7966C19.2442 24.9153 20.6766 25.3724 21.8644 26.1986V26.4407C21.8644 27.2817 21.18 27.9661 20.339 27.9661H19.322V28.983H20.339C21.7408 28.983 22.8814 27.8425 22.8814 26.4407V25.4237C22.8814 24.7302 23.1554 24.0819 23.6537 23.5988C23.8978 23.3611 24.1873 23.1751 24.505 23.0521C24.8227 22.9291 25.162 22.8715 25.5025 22.8829C26.8607 22.9236 27.9661 24.121 27.9661 25.5519V26.8668ZM25.4237 2.54237C26.098 2.54237 26.7447 2.81023 27.2215 3.28702C27.6982 3.7638 27.9661 4.41047 27.9661 5.08475C27.9661 4.41047 28.234 3.7638 28.7107 3.28702C29.1875 2.81023 29.8342 2.54237 30.5085 2.54237C29.8342 2.54237 29.1875 2.27452 28.7107 1.79773C28.234 1.32094 27.9661 0.674279 27.9661 0C27.9661 0.333869 27.9003 0.664469 27.7726 0.972924C27.6448 1.28138 27.4575 1.56165 27.2215 1.79773C26.7447 2.27452 26.098 2.54237 25.4237 2.54237ZM0 7.11864C0.333869 7.11864 0.664469 7.1844 0.972924 7.31217C1.28138 7.43994 1.56165 7.62721 1.79773 7.86329C2.03381 8.09937 2.22108 8.37964 2.34885 8.68809C2.47661 8.99655 2.54237 9.32715 2.54237 9.66102C2.54237 8.98674 2.81023 8.34007 3.28702 7.86329C3.7638 7.3865 4.41047 7.11864 5.08475 7.11864C4.41047 7.11864 3.7638 6.85079 3.28702 6.374C2.81023 5.89721 2.54237 5.25055 2.54237 4.57627C2.54237 4.91014 2.47661 5.24074 2.34885 5.54919C2.22108 5.85765 2.03381 6.13792 1.79773 6.374C1.56165 6.61008 1.28138 6.79735 0.972924 6.92512C0.664469 7.05288 0.333869 7.11864 0 7.11864Z" fill="#6D48FF"/>
</svg>
