<svg width="28" height="58" viewBox="0 0 28 58" fill="none" xmlns="http://www.w3.org/2000/svg">
<path opacity="0.07" d="M27.897 23.8558C28.0044 23.7061 28.0274 23.5115 27.9584 23.3319C27.8356 23.0325 27.6207 22.5236 27.3137 22.0072C26.953 21.3486 26.577 20.922 26.247 20.645C26.0475 20.4729 25.8326 20.3307 25.61 20.2334C25.4872 20.181 25.4105 20.1586 25.4105 20.1586V17.2097C25.4105 17.1873 25.4105 17.1499 25.4105 17.105C25.4258 16.0646 25.4642 15.1516 25.5333 14.725C25.7635 13.4227 26.293 6.78413 23.8449 4.80828C23.5226 4.54633 23.1773 4.29935 22.8089 4.05985C22.3024 3.5135 21.6654 2.94469 21.0285 2.66029C19.6164 2.03161 17.1145 1.69482 17.1145 1.69482C16.3241 1.53016 15.5567 1.44035 14.8583 1.44035C13.9988 1.41041 13.0011 1.53765 11.9651 1.77714C12.1032 1.72475 12.18 1.69482 12.18 1.69482C12.18 1.69482 9.67813 2.03161 8.26605 2.66029C7.62141 2.94469 6.97677 3.52847 6.47027 4.07482C6.1019 4.30683 5.76422 4.55381 5.44958 4.80828C3.00147 6.78413 3.531 13.4227 3.76123 14.725C3.83797 15.1516 3.86867 16.0646 3.88402 17.105C3.88402 17.1499 3.88402 17.1873 3.88402 17.2097V20.1586C3.88402 20.1586 3.80727 20.1735 3.68448 20.2334C3.46193 20.3307 3.24705 20.4729 3.04751 20.645C2.72519 20.922 2.34148 21.3486 1.98079 22.0072C1.68149 22.5311 1.45893 23.0325 1.33614 23.3319C1.26707 23.504 1.29009 23.6986 1.39753 23.8558L3.40054 22.4188L3.85332 22.0895C3.85332 22.2018 3.66914 30.9958 3.59239 38.5924C2.90938 39.6027 2.56403 44.1756 2.58705 45.7773C2.61008 47.4538 3.67681 49.4521 3.67681 49.4521C4.1296 53.3813 6.46259 55.7688 6.46259 55.7688C6.46259 55.7688 10.4916 57.9991 14.6434 57.9991C18.7952 57.9991 22.8242 55.7688 22.8242 55.7688C22.8242 55.7688 25.1572 53.3813 25.61 49.4521C25.61 49.4521 26.6768 47.4538 26.6998 45.7773C26.7228 44.1681 26.3775 39.5952 25.6944 38.5924C25.6177 30.9958 25.4335 22.2018 25.4335 22.0895L25.8863 22.4188L27.897 23.8558Z" fill="black"/>
<path d="M19.7342 1.23207C18.3221 0.603394 15.8203 0.266602 15.8203 0.266602C17.7466 0.670753 19.834 1.53893 21.5147 2.63164C21.0082 2.09277 20.3712 1.51648 19.7342 1.23207Z" fill="#FF2C00"/>
<path d="M10.8894 0.266602C10.8894 0.266602 8.38756 0.603394 6.97548 1.23207C6.33084 1.51648 5.68619 2.10025 5.17969 2.64661C6.77595 1.62126 8.7943 0.790501 10.6745 0.348928C10.8126 0.296538 10.8894 0.266602 10.8894 0.266602Z" fill="#FF2C00"/>
<path d="M24.3817 47.3049C24.3664 47.5519 24.351 47.7839 24.3203 48.0159C24.3203 48.0159 25.387 46.0176 25.4101 44.3412C25.4331 42.732 25.0877 38.1591 24.4047 37.1562C24.4584 41.6319 24.4661 45.6958 24.3817 47.3049Z" fill="#FF2C00"/>
<path d="M2.29548 37.1562C1.61246 38.1666 1.26712 42.7395 1.29014 44.3412C1.31317 46.0176 2.37989 48.0159 2.37989 48.0159C2.3492 47.7839 2.33385 47.5444 2.3185 47.3049C2.24176 45.6958 2.24943 41.6319 2.29548 37.1562Z" fill="#FF2C00"/>
<path d="M24.3203 18.7979C24.4738 18.8652 24.6964 18.985 24.9573 19.2095C24.7578 19.0373 24.5505 18.8951 24.3203 18.7979Z" fill="#FF7400"/>
<path d="M24.125 18.9849L24.1327 19.5237C24.3783 19.868 24.6008 20.9832 24.6008 20.9832L26.6038 22.4202C26.7112 22.2705 26.7343 22.0759 26.6652 21.8963C26.5424 21.5969 26.3275 21.0879 26.0206 20.5715C26.0052 20.5416 24.9845 19.1645 24.125 18.9849Z" fill="#FF5400"/>
<path d="M24.1312 19.5166C24.1005 19.4717 24.0698 19.4417 24.0391 19.4268L24.1542 20.6542L24.607 20.9835C24.607 20.9835 24.3844 19.8683 24.1312 19.5166Z" fill="#FF1B00"/>
<path d="M21.5781 51.3474C21.5781 51.2875 23.5581 48.5333 23.5811 46.9242C23.6042 45.3075 23.5811 40.585 23.5811 40.585C23.5811 40.585 23.6041 46.6697 23.1514 47.6876C22.7369 48.6306 21.7393 50.0226 21.5935 50.2172C21.5935 50.6064 21.5858 50.9881 21.5781 51.3474Z" fill="#FF7400"/>
<path d="M21.9609 4.50293C23.0123 6.05966 24.1251 18.7231 24.1251 18.7231V15.7743C24.1251 15.7518 24.1251 15.7144 24.1251 15.6695C24.0944 15.0857 23.8028 12.6384 23.4191 9.24048C23.0046 5.58067 21.9609 4.50293 21.9609 4.50293Z" fill="#FF7400"/>
<path d="M13.3552 13.0351C20.4923 13.095 22.2728 15.026 22.2728 15.026C22.2728 15.026 22.0579 4.98204 20.2467 3.01367C19.2414 1.92845 17.6144 1.45694 16.2024 1.12763C14.3145 0.693543 12.5724 0.67109 10.6769 1.09021C9.21874 1.41203 7.50737 1.89103 6.47134 3.01367C4.65252 4.98204 4.44531 15.026 4.44531 15.026C4.44531 15.026 6.21808 13.095 13.3552 13.0351Z" fill="#FF7631"/>
<path d="M21.5972 50.2009C21.6125 49.0932 21.6355 47.8433 21.6509 46.5785C21.7046 43.1357 21.7737 39.5208 21.8197 38.0464C21.9195 34.8581 22.3109 27.995 22.5104 25.383C22.7099 22.771 23.1474 19.3806 23.1474 17.6442C23.1474 15.9079 22.2648 15.0322 22.2648 15.0322C22.2648 15.0322 22.3646 16.5066 22.4874 17.5245C22.6102 18.5424 21.9118 24.6046 21.8504 25.121C21.789 25.6375 20.7453 43.8842 20.7453 43.8842L20.1544 50.2907C19.9855 52.1094 18.4967 53.5389 16.6395 53.6811C14.414 53.8532 12.2805 53.8532 10.0473 53.6811C8.18244 53.5389 6.69362 52.1019 6.53246 50.2907L5.94154 43.8842C5.94154 43.8842 4.89783 25.6375 4.83644 25.121C4.77504 24.6046 4.07668 18.5424 4.19947 17.5245C4.32226 16.5066 4.42203 15.0322 4.42203 15.0322C4.42203 15.0322 3.5625 15.9079 3.5625 17.6442C3.5625 17.6442 5.71898 38.7649 5.05899 46.5785C5.08202 47.8508 5.09737 49.0932 5.11271 50.2009C5.12039 50.2159 5.12806 50.2233 5.12806 50.2233V51.3385C5.15109 53.1198 5.17411 54.3322 5.17411 54.3322C5.17411 54.3322 9.20313 56.5625 13.3549 56.5625C17.5067 56.5625 21.5358 54.3322 21.5358 54.3322C21.5358 54.3322 21.5511 53.1198 21.5818 51.3385C21.5818 50.9867 21.5895 50.605 21.5972 50.2009Z" fill="#FF6800"/>
<path d="M1.75 19.2095C2.01093 18.985 2.23348 18.8652 2.38697 18.7979C2.15674 18.8951 1.94953 19.0373 1.75 19.2095Z" fill="#FF7400"/>
<path d="M0.102558 22.4202L2.10555 20.9832C2.10555 20.9832 2.32811 19.868 2.57369 19.5237L2.58136 18.9849C1.72184 19.1645 0.701155 20.5416 0.678132 20.5715C0.378834 21.0954 0.156277 21.5969 0.0334874 21.8963C-0.0279072 22.0759 -0.00488235 22.2705 0.102558 22.4202Z" fill="#FF5400"/>
<path d="M2.5832 18.9845C2.5832 19.1716 2.57552 19.3512 2.57552 19.5159C2.60622 19.4709 2.63692 19.441 2.66761 19.426L2.5525 20.6535C2.5525 20.7657 2.36832 29.5598 2.29158 37.1563C2.24553 41.6319 2.23785 45.6884 2.32227 47.305C2.33762 47.552 2.35297 47.784 2.38366 48.016C2.83645 51.9453 5.16945 54.3328 5.16945 54.3328C5.16945 54.3328 5.1541 53.1203 5.1234 51.339C5.1234 51.2792 3.14342 48.5249 3.1204 46.9158C3.09738 45.2992 3.1204 40.5766 3.1204 40.5766C3.1204 40.5766 3.09738 46.6614 3.55016 47.6792C3.96458 48.6222 4.96224 50.0143 5.10805 50.2089C5.0927 49.1012 5.06968 47.8514 5.05433 46.5865C5.05433 46.5865 3.0897 39.948 3.12807 36.3405C3.16645 32.7331 3.1511 22.5844 3.21249 21.7462C3.27389 20.9079 3.55784 17.6597 3.55784 17.6597C3.55784 15.9234 4.44039 15.0477 4.44039 15.0477C4.44039 15.0477 4.65526 5.00382 6.4664 3.03545C7.50244 1.91281 9.21381 1.43382 10.6719 1.11199C12.5675 0.692871 14.3019 0.715324 16.1974 1.14941C17.6095 1.47872 19.2365 1.95023 20.2418 3.03545C22.0606 5.00382 22.2678 15.0477 22.2678 15.0477C22.2678 15.0477 23.1504 15.9234 23.1504 17.6597C23.1504 17.6597 23.4343 20.9079 23.4957 21.7462C23.5571 22.5844 23.5341 32.7331 23.5802 36.3405C23.6185 39.948 21.6539 46.5865 21.6539 46.5865C21.6309 47.8588 21.6155 49.1012 21.6002 50.2089C21.7383 50.0143 22.736 48.6222 23.1581 47.6792C23.6108 46.6614 23.5878 40.5766 23.5878 40.5766C23.5878 40.5766 23.6108 45.2992 23.5878 46.9158C23.5648 48.5324 21.5848 51.2792 21.5848 51.339C21.5618 53.1203 21.5388 54.3328 21.5388 54.3328C21.5388 54.3328 23.8718 51.9453 24.3246 48.016C24.3553 47.784 24.3706 47.5445 24.386 47.305C24.4704 45.6884 24.4627 41.6319 24.4166 37.1563C24.3399 29.5598 24.1557 20.7657 24.1557 20.6535L24.0406 19.426C24.0713 19.441 24.102 19.4709 24.1327 19.5159C24.1327 19.3512 24.125 19.1716 24.125 18.9845C24.9846 19.1641 26.0052 20.5412 26.0283 20.5711C25.6676 19.9125 25.2915 19.4859 24.9615 19.209C24.7006 18.9845 24.478 18.8647 24.3246 18.7974C24.2018 18.745 24.125 18.7225 24.125 18.7225C24.125 18.7225 23.0122 6.05162 21.9609 4.50237C21.9609 4.50237 23.0046 5.58011 23.419 9.23993C23.8027 12.6378 24.0867 15.0852 24.125 15.6689C24.1404 14.6286 24.1787 13.7155 24.2478 13.2889C24.478 11.9867 25.0076 5.3481 22.5595 3.37225C22.2371 3.1103 21.8918 2.86331 21.5234 2.62382C19.8504 1.53111 17.763 0.662933 15.8291 0.258782C15.0386 0.0941273 14.2712 0.00431634 13.5728 0.00431634C12.7133 -0.0256208 11.7156 0.101612 10.6796 0.341109C8.7994 0.782682 6.78105 1.61344 5.18479 2.63879C4.81642 2.8708 4.47875 3.11778 4.16411 3.37225C1.716 5.3481 2.24553 11.9867 2.47576 13.2889C2.5525 13.7155 2.5832 14.6286 2.59855 15.6689C2.62925 15.0852 2.92087 12.6378 3.30458 9.23993C3.719 5.57263 4.7627 4.50237 4.7627 4.50237C3.71132 6.0591 2.59855 18.7225 2.59855 18.7225C2.59855 18.7225 2.5218 18.7375 2.39901 18.7974C2.24553 18.8647 2.02297 18.9845 1.76205 19.209C1.43972 19.4859 1.05601 19.9125 0.695312 20.5711C0.710661 20.5412 1.73135 19.1641 2.5832 18.9845Z" fill="#FF4E00"/>
<path d="M2.58518 19.5166C2.33193 19.8608 2.10938 20.9835 2.10938 20.9835L2.56216 20.6542L2.67728 19.4268C2.64658 19.4417 2.61588 19.4791 2.58518 19.5166Z" fill="#FF1B00"/>
<path d="M5.11507 50.2016C4.97693 50.007 3.97927 48.6149 3.55718 47.6719C3.1044 46.6541 3.12742 40.5693 3.12742 40.5693C3.12742 40.5693 3.1044 45.2919 3.12742 46.9085C3.15044 48.5251 5.13042 51.2719 5.13042 51.3317V50.2166C5.13042 50.2316 5.13042 50.2166 5.11507 50.2016Z" fill="#FF7400"/>
<path d="M4.7501 4.50293C4.7501 4.50293 3.70639 5.58067 3.29198 9.24048C2.90826 12.6384 2.62431 15.0857 2.58594 15.6695C2.58594 15.7144 2.58594 15.7518 2.58594 15.7743V18.7306C2.58594 18.7231 3.69872 6.05966 4.7501 4.50293Z" fill="#FF7400"/>
<path d="M22.508 25.3836C22.3084 27.9956 21.9247 34.8587 21.8173 38.047C21.7712 39.5289 21.7022 43.1363 21.6484 46.5791C21.6484 46.5791 23.6131 39.9406 23.5747 36.3331C23.5363 32.7257 23.5517 22.577 23.4903 21.7388C23.4289 20.9005 23.1449 17.6523 23.1449 17.6523C23.1449 19.3812 22.7075 22.7716 22.508 25.3836Z" fill="#353535"/>
<path d="M4.84701 25.1226C4.90841 25.639 5.95211 43.8857 5.95211 43.8857L6.54304 50.2923C6.71187 52.111 8.20069 53.5405 10.0579 53.6827C12.2911 53.8548 14.4169 53.8548 16.6501 53.6827C18.515 53.5405 20.0038 52.1035 20.165 50.2923L20.7559 43.8857C20.7559 43.8857 21.7996 25.639 21.861 25.1226C21.9224 24.6062 22.6207 18.5439 22.498 17.5261C22.3752 16.5082 22.2754 15.0338 22.2754 15.0338C22.2754 15.0338 20.495 13.1028 13.3578 13.043C6.22071 13.1028 4.44028 15.0338 4.44028 15.0338C4.44028 15.0338 4.34051 16.5082 4.21772 17.5261C4.09493 18.5439 4.78562 24.6062 4.84701 25.1226ZM19.4513 46.8719L19.0368 50.6964C18.8987 51.9687 17.8396 52.9492 16.5273 53.0165C16.1513 53.039 15.7753 53.054 15.3992 53.0764C14.9541 53.0989 10.9328 53.054 10.1807 53.0165C8.87603 52.9492 7.8093 51.9687 7.67116 50.6964L7.25675 46.8719C7.2107 46.4603 7.5407 46.1011 7.97046 46.1011C8.14697 46.1011 8.32348 46.1011 8.49999 46.1011C9.35184 46.1011 18.2234 46.1011 18.7299 46.1011C19.1596 46.1011 19.4973 46.4603 19.4513 46.8719ZM18.5073 45.0383C18.3001 45.0608 18.0929 45.0757 17.8857 45.0907C17.5403 45.1131 17.195 45.1281 16.8497 45.1506C16.4659 45.1655 16.0822 45.1805 15.6908 45.1955C15.3301 45.2104 14.9618 45.2179 14.6011 45.2329C14.3248 45.2404 14.0409 45.2479 13.7646 45.2553C13.6188 45.2553 13.4653 45.2628 13.3195 45.2628C13.0585 45.2553 12.7976 45.2479 12.5367 45.2479C12.1837 45.2404 11.823 45.2254 11.47 45.2179C11.0632 45.203 10.6565 45.188 10.2421 45.173C9.85835 45.158 9.46696 45.1431 9.08324 45.1131C8.79162 45.0982 8.49999 45.0757 8.20837 45.0458C8.20837 45.0458 7.28745 45.0233 6.98047 44.5892C7.06489 44.5892 7.14164 44.5967 7.22605 44.5967C7.46396 44.6042 7.69419 44.6192 7.93209 44.6267C8.27744 44.6416 8.62278 44.6566 8.96813 44.6716C9.37487 44.6865 9.7816 44.7015 10.1883 44.7165C10.6181 44.7314 11.0402 44.7464 11.47 44.7539C11.869 44.7614 12.2681 44.7763 12.6671 44.7763C13.143 44.7838 13.6188 44.7838 14.0946 44.7763C14.486 44.7689 14.885 44.7614 15.2764 44.7539C15.6985 44.7389 16.1129 44.7314 16.535 44.7165C16.9341 44.7015 17.3408 44.6865 17.7399 44.6716C18.0775 44.6566 18.4229 44.6416 18.7606 44.6267C18.9985 44.6192 19.2364 44.6042 19.4666 44.5967C19.5587 44.5892 19.6431 44.5892 19.7352 44.5818C19.4282 45.0233 18.5073 45.0383 18.5073 45.0383ZM19.8733 42.5011C19.8426 42.9277 19.4896 43.257 19.0522 43.272C19.0368 43.272 19.0215 43.272 19.0138 43.272C18.8834 43.2795 18.7529 43.2795 18.6224 43.287C18.3845 43.2945 18.1543 43.3019 17.9164 43.3094C14.816 43.4067 11.7155 43.3992 8.6151 43.3019C8.39255 43.2945 8.16232 43.287 7.93977 43.2795C7.85535 43.2795 7.77093 43.272 7.67884 43.272C7.2414 43.257 6.88838 42.9277 6.85769 42.5011C6.61978 39.1706 5.65282 25.8411 5.5991 25.8411C5.62212 25.8411 5.72956 25.7588 5.76026 25.7438C6.61211 25.2723 7.65582 25.0552 8.60743 24.8756C10.6948 24.4864 12.8513 24.4341 14.9694 24.5314C16.5657 24.5987 18.1773 24.7933 19.7122 25.2648C20.0882 25.3771 20.4566 25.5043 20.8096 25.669C20.871 25.6989 21.0705 25.8411 21.1243 25.8411C21.0705 25.8411 20.1112 39.1706 19.8733 42.5011ZM17.5327 14.5922C20.1726 14.8691 21.7075 15.67 21.907 17.5635C21.9761 18.1996 21.8994 19.1726 21.7689 20.1979C21.8073 20.3102 21.8226 20.43 21.8073 20.5497L21.3084 24.8083C21.2777 24.7858 21.247 24.7634 21.2163 24.7409C20.564 24.3218 19.6815 24.1871 18.9294 24.0449C17.901 23.8578 16.8573 23.7305 15.8213 23.6258C14.7776 23.521 13.7262 23.4012 12.6671 23.491C11.9841 23.5509 11.3011 23.5883 10.6181 23.6557C9.58975 23.7605 8.56139 23.8877 7.54838 24.0823C6.85001 24.217 5.97514 24.3517 5.39957 24.8008L4.90073 20.5422C4.89306 20.4449 4.89306 20.3551 4.91608 20.2653C4.77794 19.2175 4.69352 18.2071 4.76259 17.556C4.9698 15.6625 6.49699 14.8617 9.13696 14.5847C9.7816 14.5174 10.4262 14.465 11.0709 14.4276C13.2197 14.3228 15.4069 14.3677 17.5327 14.5922Z" fill="#3C3C3C"/>
<path d="M3.56313 17.645C3.56313 17.645 3.27918 20.8932 3.21778 21.7314C3.15639 22.5697 3.17941 32.7184 3.13337 36.3258C3.095 39.9332 5.05962 46.5718 5.05962 46.5718C5.71961 38.7582 3.56313 17.645 3.56313 17.645Z" fill="#353535"/>
<path d="M9.14896 14.5928C6.50899 14.8697 4.97413 15.6705 4.77459 17.5641C4.70552 18.2152 4.78994 19.2256 4.92808 20.2734C4.99715 19.9665 5.2504 19.712 5.5804 19.6447C5.64179 19.6297 5.70319 19.6222 5.77226 19.6073C6.91573 19.3827 8.06688 19.1881 9.21803 19.0235C9.91639 18.8963 10.6301 18.8214 11.3361 18.7765C11.6968 18.7541 12.0575 18.7391 12.4182 18.7316C13.508 18.7017 14.5977 18.7166 15.6798 18.8139C16.4396 18.8813 17.1993 18.9786 17.9591 19.0908C19.0258 19.248 20.0849 19.4351 21.1363 19.6447C21.4432 19.7046 21.6811 19.9216 21.7732 20.1985C21.9037 19.1807 21.9804 18.2002 21.9114 17.5641C21.7042 15.6705 20.177 14.8697 17.537 14.5928C15.4035 14.3683 13.224 14.3234 11.0829 14.4356C10.4306 14.473 9.78593 14.5254 9.14896 14.5928Z" fill="#797979"/>
<path d="M19.7068 25.2653C18.1796 24.8013 16.5604 24.6067 14.9641 24.5318C12.846 24.442 10.6818 24.4869 8.60209 24.8761C7.65814 25.0557 6.60676 25.2728 5.75491 25.7443C5.72421 25.7593 5.61677 25.8416 5.59375 25.8416C5.64747 25.8416 6.60676 39.1711 6.85234 42.5016C6.88304 42.9282 7.23605 43.2575 7.67349 43.2725C7.75791 43.2725 7.84233 43.28 7.93442 43.28C8.15697 43.2875 8.3872 43.295 8.60976 43.3024C11.7102 43.3997 14.8106 43.4072 17.911 43.3099C18.1489 43.3024 18.3792 43.295 18.6171 43.2875C18.7475 43.28 18.878 43.28 19.0085 43.2725C19.0238 43.2725 19.0392 43.2725 19.0468 43.2725C19.4843 43.2575 19.8373 42.9282 19.868 42.5016C20.1059 39.1711 21.0729 25.8416 21.1266 25.8416C21.0652 25.8416 20.8733 25.6994 20.8119 25.6695C20.4512 25.5048 20.0829 25.3776 19.7068 25.2653Z" fill="#797979"/>
<path d="M18.7645 44.6269C18.4268 44.6419 18.0815 44.6569 17.7438 44.6718C17.3447 44.6868 16.938 44.7018 16.5389 44.7167C16.1168 44.7317 15.7024 44.7467 15.2803 44.7542C14.8889 44.7617 14.4899 44.7766 14.0985 44.7766C13.6227 44.7841 13.1469 44.7841 12.6711 44.7766C12.272 44.7691 11.8729 44.7617 11.4739 44.7542C11.0441 44.7392 10.622 44.7317 10.1922 44.7167C9.78551 44.7018 9.37877 44.6868 8.97203 44.6718C8.62668 44.6569 8.28134 44.6419 7.93599 44.6269C7.69809 44.6195 7.46786 44.6045 7.22995 44.597C7.14554 44.597 7.06879 44.5895 6.98438 44.5895C7.29135 45.0311 8.21227 45.0461 8.21227 45.0461C8.50389 45.076 8.79552 45.0984 9.08714 45.1134C9.47086 45.1359 9.86225 45.1508 10.246 45.1733C10.6527 45.1883 11.0594 45.2032 11.4739 45.2182C11.8269 45.2332 12.1876 45.2406 12.5406 45.2481C12.8015 45.2556 13.0624 45.2631 13.3234 45.2631C13.4692 45.2631 13.6227 45.2556 13.7685 45.2556C14.0448 45.2481 14.3287 45.2406 14.605 45.2332C14.9657 45.2257 15.334 45.2107 15.6947 45.1957C16.0784 45.1808 16.4622 45.1658 16.8536 45.1508C17.1989 45.1359 17.5442 45.1209 17.8896 45.091C18.0968 45.076 18.304 45.061 18.5112 45.0386C18.5112 45.0386 19.4321 45.0161 19.7391 44.582C19.647 44.5895 19.5626 44.5895 19.4705 44.597C19.2326 44.6045 18.9947 44.6195 18.7645 44.6269Z" fill="#797979"/>
<path d="M21.1299 19.6448C20.0786 19.4352 19.0195 19.2481 17.9528 19.091C17.193 18.9787 16.4333 18.8814 15.6735 18.814C14.5914 18.7167 13.5017 18.7093 12.4119 18.7317C12.0512 18.7392 11.6905 18.7542 11.3298 18.7766C10.6238 18.8215 9.91008 18.8964 9.21172 19.0236C8.06057 19.1808 6.90942 19.3828 5.76595 19.6074C5.70455 19.6223 5.64316 19.6298 5.57409 19.6448C5.24409 19.7122 4.99084 19.9591 4.92177 20.2735C4.89875 20.3633 4.89107 20.4531 4.90642 20.5504L5.40525 24.809C5.9885 24.3674 6.8557 24.2327 7.55406 24.0905C8.56708 23.8884 9.59543 23.7686 10.6238 23.6639C11.3068 23.5965 11.9898 23.5516 12.6728 23.4992C13.7242 23.4094 14.7756 23.5291 15.827 23.6339C16.8707 23.7387 17.9067 23.8659 18.9351 24.053C19.6872 24.1952 20.5697 24.33 21.222 24.7491C21.2527 24.7715 21.2834 24.794 21.3141 24.8164L21.813 20.5579C21.8283 20.4381 21.813 20.3184 21.7746 20.2061C21.6748 19.9292 21.4369 19.7122 21.1299 19.6448Z" fill="#303030"/>
<path d="M18.7352 46.1001C18.2364 46.1001 9.3572 46.1001 8.50535 46.1001C8.32884 46.1001 8.15233 46.1001 7.97582 46.1001C7.54606 46.1001 7.21606 46.4593 7.26211 46.871L7.67652 50.6954C7.81466 51.9678 8.87371 52.9482 10.186 53.0156C10.9381 53.053 14.9518 53.0979 15.4046 53.0755C15.7806 53.053 16.1566 53.038 16.5327 53.0156C17.8373 52.9482 18.9041 51.9678 19.0422 50.6954L19.4566 46.871C19.495 46.4593 19.1573 46.1001 18.7352 46.1001Z" fill="#797979"/>
</svg>
