<svg width="127" height="126" viewBox="0 0 127 126" fill="none" xmlns="http://www.w3.org/2000/svg">
<g id="vuesax/bold/tick-circle">
<g id="tick-circle">
<path id="Vector" d="M63.5 10.5C34.5725 10.5 11 34.0725 11 63C11 91.9275 34.5725 115.5 63.5 115.5C92.4275 115.5 116 91.9275 116 63C116 34.0725 92.4275 10.5 63.5 10.5ZM88.595 50.925L58.8275 80.6925C58.0925 81.4275 57.095 81.8475 56.045 81.8475C54.995 81.8475 53.9975 81.4275 53.2625 80.6925L38.405 65.835C36.8825 64.3125 36.8825 61.7925 38.405 60.27C39.9275 58.7475 42.4475 58.7475 43.97 60.27L56.045 72.345L83.03 45.36C84.5525 43.8375 87.0725 43.8375 88.595 45.36C90.1175 46.8825 90.1175 49.35 88.595 50.925Z" fill="#6D48FF"/>
</g>
</g>
</svg>
