<svg width="24" height="24" viewBox="0 0 24 24" fill="none" xmlns="http://www.w3.org/2000/svg">
<g id="Frame">
<g id="Group">
<path id="Vector" d="M21.1875 14.1562H7.73438C6.57127 14.1562 5.625 13.21 5.625 12.0469V9.84375H7.03125V12.0469C7.03125 12.4346 7.34667 12.75 7.73438 12.75H9.29283C9.21269 12.5242 9.17179 12.2864 9.17189 12.0469V9.84375H10.5781V12.0469C10.5781 12.4346 10.8936 12.75 11.2813 12.75H12.8397C12.7596 12.5242 12.7187 12.2864 12.7188 12.0469V9.84375H14.125V12.0469C14.125 12.4346 14.4405 12.75 14.8282 12.75H16.3866C16.3065 12.5242 16.2656 12.2864 16.2657 12.0469V9.84375H17.6719V12.0469C17.6719 12.4346 17.9873 12.75 18.375 12.75H21.1875V8.4375H2.8125V9.89062H1.40625V7.03125H0V16.9688H1.40625V14.1094H2.8125V18.375H9.89062V21.1875H21.1875V14.1562ZM22.5938 15.5625H24V19.7812H22.5938V15.5625ZM21.1875 6.32812C21.1875 5.16502 20.2412 4.21875 19.0781 4.21875H18.3281V2.8125H16.9219V4.21875H15.5156V2.8125H14.1094V4.21875H12.7031V2.8125H11.2969V4.21875H9.89062V2.8125H8.48438V4.21875H7.07812V2.8125H5.67188V4.21875H4.92188C3.75877 4.21875 2.8125 5.16502 2.8125 6.32812V7.03125H21.1875V6.32812Z" fill="#6D48FF"/>
</g>
</g>
</svg>
