<svg width="56" height="56" viewBox="0 0 56 56" fill="none" xmlns="http://www.w3.org/2000/svg">
<path d="M48.1158 19.7168C45.6658 8.93683 36.2624 4.0835 28.0024 4.0835C28.0024 4.0835 28.0024 4.0835 27.9791 4.0835C19.7424 4.0835 10.3158 8.9135 7.86575 19.6935C5.13575 31.7335 12.5091 41.9302 19.1824 48.3468C21.6558 50.7268 24.8291 51.9168 28.0024 51.9168C31.1758 51.9168 34.3491 50.7268 36.7991 48.3468C43.4724 41.9302 50.8458 31.7568 48.1158 19.7168ZM28.0024 31.4068C23.9424 31.4068 20.6524 28.1168 20.6524 24.0568C20.6524 19.9968 23.9424 16.7068 28.0024 16.7068C32.0624 16.7068 35.3524 19.9968 35.3524 24.0568C35.3524 28.1168 32.0624 31.4068 28.0024 31.4068Z" fill="#6D48FF"/>
</svg>
