<svg width="56" height="56" viewBox="0 0 56 56" fill="none" xmlns="http://www.w3.org/2000/svg">
<path d="M47.1082 32.8061L44.4715 28.4194C43.8882 27.4627 43.3749 25.6194 43.3749 24.4994V20.136C43.3749 11.666 36.4915 4.78271 28.0449 4.78271C19.5749 4.80605 12.6915 11.666 12.6915 20.136V24.476C12.6915 25.596 12.1782 27.4394 11.6182 28.396L8.98153 32.7827C7.97819 34.486 7.74486 36.4227 8.37486 38.1027C9.00486 39.806 10.4282 41.1594 12.2949 41.766C14.8149 42.606 17.3582 43.2127 19.9482 43.6561C20.2049 43.7027 20.4615 43.7261 20.7182 43.7727C21.0449 43.8194 21.3949 43.8661 21.7449 43.9127C22.3515 44.0061 22.9582 44.0761 23.5882 44.1227C25.0582 44.2627 26.5515 44.3327 28.0449 44.3327C29.5149 44.3327 30.9849 44.2627 32.4315 44.1227C32.9682 44.0761 33.5049 44.0294 34.0182 43.9594C34.4382 43.9127 34.8582 43.8661 35.2782 43.7961C35.5349 43.7727 35.7915 43.7261 36.0482 43.6794C38.6615 43.2594 41.2515 42.606 43.7715 41.766C45.5682 41.1594 46.9449 39.806 47.5982 38.0794C48.2515 36.3294 48.0649 34.416 47.1082 32.8061ZM29.7482 23.3327C29.7482 24.3127 28.9549 25.1061 27.9749 25.1061C26.9949 25.1061 26.2015 24.3127 26.2015 23.3327V16.0994C26.2015 15.1194 26.9949 14.326 27.9749 14.326C28.9549 14.326 29.7482 15.1194 29.7482 16.0994V23.3327Z" fill="#6D48FF"/>
<path d="M34.6025 46.6898C33.6225 49.3965 31.0325 51.3332 27.9992 51.3332C26.1559 51.3332 24.3359 50.5865 23.0525 49.2565C22.3059 48.5565 21.7459 47.6232 21.4192 46.6665C21.7225 46.7132 22.0259 46.7365 22.3525 46.7832C22.8892 46.8532 23.4492 46.9232 24.0092 46.9698C25.3392 47.0865 26.6925 47.1565 28.0459 47.1565C29.3759 47.1565 30.7059 47.0865 32.0125 46.9698C32.5025 46.9232 32.9925 46.8998 33.4592 46.8298C33.8325 46.7832 34.2059 46.7365 34.6025 46.6898Z" fill="#6D48FF"/>
</svg>
