<svg width="24" height="24" viewBox="0 0 24 24" fill="none" xmlns="http://www.w3.org/2000/svg">
<g id="Frame" clip-path="url(#clip0_49_2389)">
<g id="Group">
<path id="Vector" d="M10.7964 2.26536C9.34515 3.71657 8.59866 5.60136 8.54199 7.50275L9.80199 6.24285C11.9951 4.04971 15.5638 4.04971 17.757 6.24285C19.9501 8.43599 19.9501 12.0047 17.757 14.1978L16.497 15.4577C18.3984 15.4011 20.2831 14.6547 21.7344 13.2035C24.7549 10.1829 24.7548 5.28585 21.7344 2.26536C18.714 -0.755121 13.8168 -0.755121 10.7964 2.26536Z" fill="#6D48FF"/>
<path id="Vector_2" d="M16.7629 7.23709C15.1122 5.58648 12.4473 5.58638 10.7966 7.23709L7.81361 10.2201L6.81915 9.22576L7.31636 8.72865C7.59118 8.45382 7.59118 8.00912 7.31636 7.73429L4.33323 4.75116C3.51072 3.92865 2.17262 3.92865 1.35011 4.75116C0.527684 5.57368 0.527684 6.91177 1.35011 7.73429L4.33323 10.7173C4.60806 10.9921 5.05286 10.9921 5.32759 10.7173L5.82479 10.2202L6.81915 11.2146L4.0615 13.9722C3.92228 14.1114 3.85267 14.2805 3.85276 14.4794L3.85267 16.1699L2.81143 17.2111L6.78892 21.1886L7.83015 20.1474L9.52061 20.1473C9.7195 20.1474 9.88848 20.0777 10.0277 19.9385L16.7629 13.2034C18.4136 11.5526 18.4135 8.88769 16.7629 7.23709ZM11.7909 10.2202C11.5125 9.94177 11.5126 9.50419 11.7909 9.22585L12.7854 8.2314C13.0638 7.95296 13.5013 7.95296 13.7798 8.2314C14.0582 8.50993 14.0582 8.94732 13.7798 9.22585L12.7854 10.2202C12.507 10.4986 12.0695 10.4986 11.7909 10.2202ZM15.7684 11.2145L14.7741 12.2089C14.4957 12.4873 14.0582 12.4874 13.7797 12.2089C13.5013 11.9304 13.5013 11.493 13.7797 11.2145L14.7741 10.2202C15.0525 9.94173 15.49 9.94173 15.7684 10.2202C16.047 10.4986 16.047 10.9361 15.7684 11.2145ZM4.80011 23.1773L5.79447 22.1828L1.81698 18.2054L0.822621 19.1998C-0.274207 20.2966 -0.274207 22.0805 0.822621 23.1773C1.91945 24.274 3.70328 24.274 4.80011 23.1773Z" fill="#6D48FF"/>
</g>
</g>
<defs>
<clipPath id="clip0_49_2389">
<rect width="24" height="24" fill="white"/>
</clipPath>
</defs>
</svg>
