<svg width="24" height="24" viewBox="0 0 24 24" fill="none" xmlns="http://www.w3.org/2000/svg">
<g id="Group">
<path id="Vector" d="M12.2501 10.3446C12.7094 10.3446 13.1547 10.4795 13.5366 10.734L13.818 10.9214C14.872 11.6257 16.1114 12.001 17.379 11.9998C17.6567 11.9998 17.9314 11.9787 18.2037 11.9435C18.2018 11.7756 18.1933 11.6079 18.178 11.4407L14.3286 9.90104C14.2765 9.88025 14.2292 9.8491 14.1895 9.80949C14.1498 9.76987 14.1186 9.7226 14.0977 9.67056L12.558 5.82111C12.3743 5.80456 12.1885 5.79297 11.9998 5.79297C11.8111 5.79297 11.6253 5.80456 11.4412 5.82111L9.90148 9.67056C9.8806 9.7226 9.84937 9.76987 9.80968 9.80949C9.76999 9.8491 9.72267 9.88025 9.67059 9.90104L5.82114 11.4407C5.80459 11.6253 5.793 11.8111 5.793 11.9998C5.793 12.1884 5.80459 12.3742 5.82114 12.5584L9.67059 14.0981C9.7761 14.1403 9.85927 14.2234 9.90148 14.3285L11.4412 18.178C11.4776 18.1813 11.5148 18.1809 11.5512 18.1834C11.5719 17.986 11.586 17.7866 11.586 17.5859C11.586 16.4496 11.2529 15.3494 10.6227 14.4043L10.3206 13.9508C10.0658 13.5684 9.93127 13.1232 9.93127 12.6643C9.93171 12.0494 10.1761 11.4597 10.6109 11.0248C11.0456 10.5899 11.6352 10.3453 12.2501 10.3446Z" fill="#6D48FF"/>
<path id="Vector_2" d="M5.98834 13.5166C6.26388 14.6008 6.82684 15.5906 7.61786 16.3816C8.40889 17.1726 9.39867 17.7356 10.4829 18.0111L9.19849 14.801L5.98834 13.5166Z" fill="#6D48FF"/>
<path id="Vector_3" d="M10.6227 20.7675C10.9813 20.2281 11.2459 19.6318 11.4052 19.0039C7.804 18.7006 4.96543 15.6779 4.96543 11.9998C4.96543 8.12096 8.12096 4.96543 11.9998 4.96543C15.805 4.96543 18.9067 8.00469 19.023 11.7821C19.7049 11.6028 20.3526 11.312 20.9396 10.9215L21.221 10.734C21.6283 10.4624 22.1112 10.3269 22.6003 10.347C23.0895 10.3671 23.5596 10.5417 23.9433 10.8457C23.3599 4.76847 18.2269 0 11.9998 0C5.38336 0 0 5.38294 0 11.9998C0 18.0709 4.53303 23.0996 10.391 23.8887C10.105 23.5059 9.94465 23.0439 9.93198 22.5663C9.91931 22.0887 10.0549 21.6188 10.3202 21.2214L10.6227 20.7675ZM1.65514 13.6549H0.827572V12.8274H1.65514V13.6549ZM1.65514 11.9998H0.827572C0.827572 5.83935 5.83935 0.827572 11.9998 0.827572V1.65514C6.29575 1.65514 1.65514 6.29575 1.65514 11.9998Z" fill="#6D48FF"/>
<path id="Vector_4" d="M18.0113 10.4828C17.7358 9.39861 17.1728 8.40883 16.3818 7.6178C15.5908 6.82678 14.601 6.26382 13.5168 5.98828L14.8007 9.19843L18.0113 10.4828ZM23.4468 21.2268C22.7256 20.1451 22.3445 18.8864 22.3445 17.5859C22.3445 16.2853 22.7256 15.0266 23.4468 13.945L23.7489 13.4915C23.9392 13.2045 24.0245 12.8604 23.9901 12.5178C23.9558 12.1751 23.804 11.8548 23.5605 11.6113C23.317 11.3677 22.9968 11.2159 22.6541 11.1815C22.3114 11.1471 21.9674 11.2322 21.6803 11.4225L21.399 11.61C20.2044 12.4065 18.8145 12.8273 17.379 12.8273C15.9436 12.8273 14.5537 12.4065 13.3591 11.6104L13.0777 11.4229C12.7907 11.2326 12.4467 11.1474 12.104 11.1817C11.7614 11.216 11.4411 11.3678 11.1975 11.6113C10.954 11.8548 10.8021 12.175 10.7677 12.5177C10.7333 12.8604 10.8185 13.2044 11.0088 13.4915L11.3109 13.945C12.0325 15.0266 12.4136 16.2853 12.4136 17.5859C12.4136 18.8864 12.0325 20.1451 11.3113 21.2268L11.0092 21.6803C10.8457 21.9253 10.7586 22.2133 10.7589 22.5079C10.7589 23.323 11.416 23.9851 12.2282 23.9975H12.2427V23.9991L12.2506 24C12.546 24 12.8319 23.9135 13.0782 23.7496L13.3595 23.5622C13.7464 23.3064 14.157 23.0883 14.5856 22.9109L13.0119 21.8619C12.9553 21.824 12.9088 21.7726 12.8766 21.7124C12.8444 21.6523 12.8275 21.5851 12.8274 21.5168V19.8617C12.8274 19.1773 13.3844 18.6203 14.0688 18.6203C14.2144 18.6203 14.3526 18.6501 14.4825 18.6965V15.7238C14.4825 15.0394 15.0395 14.4825 15.7239 14.4825C15.8873 14.4825 16.0425 14.516 16.1857 14.5735C16.3289 14.0459 16.8068 13.6549 17.379 13.6549C17.9513 13.6549 18.4296 14.0459 18.5724 14.5735C18.7156 14.516 18.8707 14.4825 19.0342 14.4825C19.7186 14.4825 20.2755 15.0394 20.2755 15.7238V16.2138C20.4081 16.1648 20.548 16.139 20.6893 16.1376C21.3737 16.1376 21.9307 16.6946 21.9307 17.379V21.9306C21.9307 22.0403 21.8872 22.1458 21.8095 22.2232L21.1031 22.9295V23.3814C21.202 23.4405 21.3026 23.4972 21.399 23.5614L21.6803 23.7488C21.9674 23.9392 22.3114 24.0244 22.6541 23.9901C22.9967 23.9557 23.317 23.804 23.5605 23.5604C23.8041 23.3169 23.9559 22.9967 23.9903 22.654C24.0247 22.3114 23.9396 21.9673 23.7493 21.6803L23.4468 21.2268ZM5.98834 10.4828L9.19849 9.19843L10.4825 5.98828C9.39836 6.26393 8.40868 6.82693 7.61774 7.61794C6.8268 8.40895 6.26389 9.39868 5.98834 10.4828Z" fill="#6D48FF"/>
<path id="Vector_5" d="M21.1031 17.3789C21.0983 17.2724 21.0526 17.1718 20.9756 17.098C20.8985 17.0243 20.7959 16.9832 20.6893 16.9832C20.5827 16.9832 20.4801 17.0243 20.403 17.098C20.326 17.1718 20.2803 17.2724 20.2755 17.3789V18.6203H19.4479V15.7238C19.4432 15.6172 19.3975 15.5166 19.3204 15.4429C19.2433 15.3692 19.1408 15.3281 19.0342 15.3281C18.9275 15.3281 18.825 15.3692 18.7479 15.4429C18.6708 15.5166 18.6251 15.6172 18.6204 15.7238V18.6203H17.7928V14.8962C17.788 14.7896 17.7424 14.689 17.6653 14.6153C17.5882 14.5416 17.4857 14.5005 17.379 14.5005C17.2724 14.5005 17.1698 14.5416 17.0927 14.6153C17.0157 14.689 16.97 14.7896 16.9652 14.8962V18.6203H16.1377V15.7238C16.1329 15.6172 16.0872 15.5166 16.0101 15.4429C15.9331 15.3692 15.8305 15.3281 15.7239 15.3281C15.6172 15.3281 15.5147 15.3692 15.4376 15.4429C15.3605 15.5166 15.3148 15.6172 15.3101 15.7238V21.103H14.4825V19.8616C14.4777 19.7551 14.4321 19.6545 14.355 19.5808C14.2779 19.5071 14.1754 19.4659 14.0687 19.4659C13.9621 19.4659 13.8595 19.5071 13.7825 19.5808C13.7054 19.6545 13.6597 19.7551 13.6549 19.8616V21.2954L15.9535 22.8276C16.0686 22.9046 16.1377 23.0337 16.1377 23.1719V23.9995H20.2755V22.7581C20.2755 22.6485 20.319 22.5429 20.3968 22.4656L21.1031 21.7592V17.3789Z" fill="#6D48FF"/>
</g>
</svg>
