<svg width="24" height="24" viewBox="0 0 24 24" fill="none" xmlns="http://www.w3.org/2000/svg">
<g id="Frame" clip-path="url(#clip0_49_2353)">
<g id="Group">
<path id="Vector" d="M3.77326 16.4229C1.69271 16.4229 0 18.1156 0 20.1961C0 22.2768 1.69271 23.9694 3.77326 23.9694C5.85386 23.9694 7.54657 22.2767 7.54657 20.1961C7.54657 18.1156 5.85386 16.4229 3.77326 16.4229ZM3.77326 22.4733C2.51766 22.4733 1.49614 21.4518 1.49614 20.1961C1.49614 18.9405 2.51766 17.9189 3.77326 17.9189C5.02886 17.9189 6.05043 18.9405 6.05043 20.1961C6.05043 21.4518 5.02886 22.4733 3.77326 22.4733ZM17.8388 21.5397C15.484 19.8414 12.6278 18.9127 9.71614 18.9127H8.78884C8.89607 19.3321 8.9502 19.7633 8.94995 20.1962C8.94995 21.6826 8.32002 23.0244 7.31333 23.9695H15.6922L17.8388 21.5397Z" fill="#6D48FF"/>
<path id="Vector_2" d="M1.09454 15.7733C1.87655 15.2984 2.79361 15.0248 3.7734 15.0248C5.64471 15.0248 7.28723 16.0229 8.19671 17.5146H9.71629C12.7033 17.5146 15.6375 18.402 18.1214 20.0354C17.7478 16.1954 14.4047 13.024 10.369 13.0465H4.98962C3.20195 13.0465 1.67503 14.1841 1.09454 15.7733ZM3.7734 19.3277C3.29162 19.3277 2.89966 19.7196 2.89966 20.2015C2.89966 20.6833 3.29162 21.0752 3.7734 21.0752C4.25518 21.0752 4.64719 20.6833 4.64719 20.2015C4.64719 19.7196 4.25518 19.3277 3.7734 19.3277ZM10.416 11.6431C10.9696 11.6431 11.5118 11.6926 12.0387 11.7869V7.67739C12.0387 5.20492 14.0431 3.20057 16.5156 3.20057C18.988 3.20057 20.9924 5.20492 20.9924 7.67739V8.71701C20.9924 8.84636 20.9659 8.97433 20.9145 9.09303C20.8631 9.21172 20.7879 9.31863 20.6936 9.40715L18.6921 11.272L20.8125 13.3923L23.6979 10.7267C23.7933 10.6381 23.8693 10.5308 23.9213 10.4115C23.9733 10.2922 24.0001 10.1635 24.0001 10.0333V7.60713C24.0001 3.42282 20.6081 0.0307617 16.4238 0.0307617C12.2395 0.0307617 8.84741 3.42282 8.84741 7.60713V11.6431H10.416V11.6431ZM23.9984 23.6941C23.9984 22.8359 23.3028 22.1403 22.4446 22.1403H19.1809L17.565 23.9694H23.7231C23.7961 23.9694 23.8661 23.9404 23.9178 23.8887C23.9694 23.8371 23.9984 23.7671 23.9984 23.6941ZM6.47144 11.6431V10.6657C6.47144 10.2782 6.15727 9.96405 5.76975 9.96405C5.38224 9.96405 5.06807 10.2782 5.06807 10.6657V11.6431L6.47144 11.6431Z" fill="#6D48FF"/>
<path id="Vector_3" d="M15.7734 13.4034C16.8642 14.1983 17.7742 15.2268 18.4291 16.4149L19.8507 14.9934C19.9211 14.9229 19.9606 14.8274 19.9606 14.7278C19.9606 14.6282 19.9211 14.5327 19.8507 14.4623L17.5482 12.1598C17.4778 12.0894 17.3823 12.0498 17.2827 12.0498C17.1831 12.0498 17.0876 12.0894 17.0171 12.1598L15.7734 13.4034Z" fill="#6D48FF"/>
</g>
</g>
<defs>
<clipPath id="clip0_49_2353">
<rect width="24" height="24" fill="white"/>
</clipPath>
</defs>
</svg>
