<svg width="44" height="14" viewBox="0 0 44 14" fill="none" xmlns="http://www.w3.org/2000/svg">
<g id="Logo">
<g id="Visa">
<path id="Vector 2" d="M15.7199 13.8517L17.9355 0.272506H21.478L19.2618 13.8517H15.7199ZM32.0447 0.570404C31.028 0.185662 29.9541 -0.00739701 28.8729 0.000216715C25.3767 0.000216715 22.9138 1.83967 22.8925 4.47653C22.8733 6.42543 24.6512 7.51244 25.9934 8.16092C27.3708 8.82602 27.8337 9.25003 27.8271 9.84377C27.8184 10.7527 26.7269 11.1677 25.7103 11.1677C24.2938 11.1677 23.5417 10.9599 22.3792 10.4562L21.9237 10.2408L21.427 13.2767C22.2533 13.655 23.7818 13.9834 25.3681 14C29.0877 14 31.5022 12.182 31.5301 9.36641C31.5434 7.82351 30.6017 6.64919 28.5592 5.68132C27.3224 5.05778 26.5651 4.63516 26.573 3.99985C26.573 3.43659 27.2143 2.83387 28.5996 2.83387C29.5073 2.81264 30.4092 2.98962 31.2476 3.35348L31.5646 3.51004L32.0447 0.570404ZM41.1458 0.272506H38.4202C37.576 0.272506 36.944 0.513619 36.5733 1.3935L31.3344 13.7824H35.0633C35.0633 13.7824 35.6602 12.1349 35.7975 11.7733L40.2651 11.7788C40.3693 12.2472 40.6895 13.7824 40.6895 13.7824H44L41.1458 0.272506ZM36.8121 9.00201C37.1045 8.22051 38.222 5.21089 38.222 5.21089C38.2007 5.24692 38.5124 4.42524 38.6908 3.91602L38.9302 5.08552C38.9302 5.08552 39.6079 8.32304 39.7492 9.00201H36.8121ZM12.7138 0.272506L9.25748 9.50014L8.88942 7.62469C8.24616 5.4631 6.24145 3.12138 4 1.94914L7.16059 13.7824L10.8955 13.7783L16.4533 0.272506H12.6966" fill="white"/>
<path id="Vector 1" d="M5.9963 0.00263118H0.0479053L0 0.270081C4.64791 1.33533 7.72311 3.90875 9 7L7.70089 1.08562C7.47662 0.271406 6.82674 0.0282576 6.022 0" fill="white"/>
</g>
</g>
</svg>
