<svg width="23" height="23" viewBox="0 0 23 23" fill="none" xmlns="http://www.w3.org/2000/svg">
<g id="vuesax/bold/gps">
<path id="Vector" d="M21.0832 10.7816H19.1282C18.7832 7.13033 15.8698 4.20741 12.2186 3.87199V1.91699C12.2186 1.52408 11.8928 1.19824 11.4998 1.19824C11.1069 1.19824 10.7811 1.52408 10.7811 1.91699V3.87199C7.12984 4.21699 4.20692 7.13033 3.8715 10.7816H1.9165C1.52359 10.7816 1.19775 11.1074 1.19775 11.5003C1.19775 11.8932 1.52359 12.2191 1.9165 12.2191H3.8715C4.2165 15.8703 7.12984 18.7932 10.7811 19.1287V21.0837C10.7811 21.4766 11.1069 21.8024 11.4998 21.8024C11.8928 21.8024 12.2186 21.4766 12.2186 21.0837V19.1287C15.8698 18.7837 18.7928 15.8703 19.1282 12.2191H21.0832C21.4761 12.2191 21.8019 11.8932 21.8019 11.5003C21.8019 11.1074 21.4761 10.7816 21.0832 10.7816ZM11.4998 14.4903C9.8515 14.4903 8.50984 13.1487 8.50984 11.5003C8.50984 9.85199 9.8515 8.51033 11.4998 8.51033C13.1482 8.51033 14.4898 9.85199 14.4898 11.5003C14.4898 13.1487 13.1482 14.4903 11.4998 14.4903Z" fill="#6D48FF"/>
</g>
</svg>
