<svg width="64" height="64" viewBox="0 0 64 64" fill="none" xmlns="http://www.w3.org/2000/svg">
<circle cx="32" cy="32" r="32" fill="#F6F6F6"/>
<g clip-path="url(#clip0_43_369)">
<path d="M42.5334 30.5321C41.9291 28.7468 40.2563 27.5469 38.3706 27.5469H25.7179C23.8338 27.5469 22.161 28.7459 21.5585 30.5209L21.2654 31.3504C22.0962 31.1446 22.1241 31.0625 23.1523 31.0625H40.8477C42.0147 31.0625 41.8776 31.1242 42.8297 31.3705L42.5334 30.5321ZM23.8759 17.3567C23.5463 16.8811 22.7584 16.8811 22.4288 17.3566C21.8537 18.19 20.5156 20.2483 20.5156 21.3718C20.5156 22.8257 21.6984 24.0085 23.1523 24.0085C24.6063 24.0085 25.7891 22.8257 25.7891 21.3718C25.7891 20.2483 24.451 18.19 23.8759 17.3567ZM41.5712 17.3567C41.2416 16.8812 40.4537 16.8812 40.1241 17.3567C39.549 18.19 38.2109 20.2483 38.2109 21.3718C38.2109 22.8257 39.3937 24.0085 40.8477 24.0085C42.3016 24.0085 43.4844 22.8257 43.4844 21.3718C43.4844 20.2483 42.1463 18.19 41.5712 17.3567ZM32.7236 17.3567C32.394 16.8812 31.6061 16.8812 31.2765 17.3567C30.7014 18.19 29.3633 20.2483 29.3633 21.3718C29.3633 22.8257 30.5461 24.0085 32 24.0085C33.4539 24.0085 34.6367 22.8257 34.6367 21.3718C34.6367 20.2483 33.2986 18.19 32.7236 17.3567ZM40.8477 32.8203H23.1523C23.0117 32.8203 22.3965 32.8554 22.291 32.9082C19.3027 33.33 17 35.9961 17 39.0899C17 41.2146 18.5106 42.9881 20.5156 43.3957V44.3633C20.5156 45.8172 21.6984 47 23.1523 47H24.9102C26.3641 47 27.5469 45.8172 27.5469 44.3633V43.4844H36.4531V44.3633C36.4531 45.8172 37.6359 47 39.0898 47H40.8477C42.3016 47 43.4844 45.8172 43.4844 44.3633V43.3957C45.4894 42.9881 47 41.2146 47 39.0899C47 35.6412 44.1477 32.8203 40.8477 32.8203ZM22.2734 39.9688C21.3044 39.9688 20.5156 39.18 20.5156 38.2109C20.5156 37.2419 21.3044 36.4531 22.2734 36.4531C23.2425 36.4531 24.0312 37.2419 24.0312 38.2109C24.0312 39.18 23.2425 39.9688 22.2734 39.9688ZM32.8789 41.7266H31.1211V39.9688H32.8789V41.7266ZM35.9258 37.0332C35.4335 37.7715 34.5665 38.2109 33.6699 38.2109H30.4179C29.5215 38.2109 28.6543 37.7715 28.1621 37.0332C27.5738 36.1621 27.1013 35.2514 26.4218 34.5723H37.666C36.9867 35.2516 36.5141 36.162 35.9258 37.0332ZM41.7266 39.9688C40.7575 39.9688 39.9688 39.18 39.9688 38.2109C39.9688 37.2419 40.7575 36.4531 41.7266 36.4531C42.6956 36.4531 43.4844 37.2419 43.4844 38.2109C43.4844 39.18 42.6956 39.9688 41.7266 39.9688Z" fill="#6D48FF"/>
</g>
<defs>
<clipPath id="clip0_43_369">
<rect width="30" height="30" fill="white" transform="translate(17 17)"/>
</clipPath>
</defs>
</svg>
