<svg width="64" height="64" viewBox="0 0 64 64" fill="none" xmlns="http://www.w3.org/2000/svg">
<circle cx="32" cy="32" r="32" fill="#F6F6F6"/>
<path d="M17 20.5C17 19.6716 17.6716 19 18.5 19H24V22H18.5C17.6716 22 17 21.3284 17 20.5Z" fill="#6D48FF"/>
<path d="M20 17.5C20 17.2239 20.2239 17 20.5 17C20.7761 17 21 17.2239 21 17.5V18H20V17.5Z" fill="#6D48FF"/>
<path d="M20 23H21V23.5C21 23.7761 20.7761 24 20.5 24C20.2239 24 20 23.7761 20 23.5V23Z" fill="#6D48FF"/>
<rect x="36" y="26.5996" width="3" height="1" rx="0.5" transform="rotate(-32.2257 36 26.5996)" fill="#6D48FF"/>
<path d="M25 18L30 17V24L25 23V18Z" fill="#6D48FF"/>
<path d="M31 17H40C43.866 17 47 20.134 47 24H31V17Z" fill="#6D48FF"/>
<path d="M47 25V47C43.134 47 40 43.866 40 40V25H47Z" fill="#6D48FF"/>
<path d="M39.1278 29.4963C39 31 36.5001 30 35.0001 29C33.8244 28.2163 31 25.5 32.822 24.7281C33.6769 25.7217 34.177 26.7427 35.4981 27.7427C37.1769 28.7427 39.1278 29.4963 39.1278 29.4963Z" fill="#6D48FF"/>
</svg>
