<svg width="22" height="22" viewBox="0 0 22 22" fill="none" xmlns="http://www.w3.org/2000/svg">
<g id="Frame">
<g id="Group">
<path id="Vector" fill-rule="evenodd" clip-rule="evenodd" d="M16.4948 10.9993C17.1805 10.9992 17.8525 10.8067 18.4344 10.4438C19.0162 10.0809 19.4846 9.56206 19.7864 8.94628C20.0882 8.3305 20.2112 7.64243 20.1416 6.96023C20.0719 6.27803 19.8123 5.62903 19.3923 5.08695C18.9723 4.54487 18.4087 4.13143 17.7655 3.8936C17.1224 3.65577 16.4254 3.60307 15.7537 3.74149C15.0821 3.87992 14.4627 4.20391 13.966 4.67668C13.4693 5.14945 13.1151 5.75204 12.9436 6.41602H2.74479C2.50168 6.41602 2.26852 6.51259 2.09661 6.6845C1.9247 6.85641 1.82813 7.08957 1.82813 7.33268C1.82813 7.5758 1.9247 7.80896 2.09661 7.98086C2.26852 8.15277 2.50168 8.24935 2.74479 8.24935H12.9436C13.3506 9.8306 14.7861 10.9993 16.4948 10.9993ZM14.6615 7.33268C14.6615 7.81891 14.8546 8.28523 15.1984 8.62905C15.5422 8.97286 16.0086 9.16602 16.4948 9.16602C16.981 9.16602 17.4473 8.97286 17.7912 8.62905C18.135 8.28523 18.3281 7.81891 18.3281 7.33268C18.3281 6.84645 18.135 6.38014 17.7912 6.03632C17.4473 5.6925 16.981 5.49935 16.4948 5.49935C16.0086 5.49935 15.5422 5.6925 15.1984 6.03632C14.8546 6.38014 14.6615 6.84645 14.6615 7.33268ZM1.82813 14.666C1.82724 13.7729 2.15234 12.9102 2.74239 12.2399C3.33244 11.5695 4.14687 11.1375 5.03283 11.0249C5.9188 10.9124 6.81536 11.1271 7.55426 11.6287C8.29315 12.1304 8.82357 12.8844 9.04596 13.7493H19.2448C19.4879 13.7493 19.7211 13.8459 19.893 14.0178C20.0649 14.1897 20.1615 14.4229 20.1615 14.666C20.1615 14.9091 20.0649 15.1423 19.893 15.3142C19.7211 15.4861 19.4879 15.5827 19.2448 15.5827H9.04596C8.82071 16.4448 8.28938 17.1955 7.55118 17.6945C6.81298 18.1935 5.91838 18.4068 5.03442 18.2946C4.15047 18.1823 3.33759 17.7522 2.74757 17.0844C2.15755 16.4167 1.83073 15.5571 1.82813 14.666ZM7.32813 14.666C7.32813 14.1798 7.13497 13.7135 6.79116 13.3697C6.44734 13.0258 5.98102 12.8327 5.49479 12.8327C5.00856 12.8327 4.54225 13.0258 4.19843 13.3697C3.85461 13.7135 3.66146 14.1798 3.66146 14.666C3.66146 15.1522 3.85461 15.6186 4.19843 15.9624C4.54225 16.3062 5.00856 16.4993 5.49479 16.4993C5.98102 16.4993 6.44734 16.3062 6.79116 15.9624C7.13497 15.6186 7.32813 15.1522 7.32813 14.666Z" fill="#6D48FF"/>
</g>
</g>
</svg>
