<svg width="203" height="127" viewBox="0 0 203 127" fill="none" xmlns="http://www.w3.org/2000/svg">
<g opacity="0.2">
<path fill-rule="evenodd" clip-rule="evenodd" d="M125.027 195.693C123.473 195.376 121.995 195.075 120.604 194.795C113.639 193.398 106.253 192.992 98.7483 192.578L98.2799 192.553C90.593 192.129 82.7749 191.677 75.0261 190.152C59.5858 187.115 44.4054 179.819 31.4248 159.878C15.0394 134.705 3.05275 97.3728 1.54601 65.4551C0.792589 49.4951 2.66385 34.9703 7.84593 24.0163C13.0102 13.1001 21.4506 5.73866 33.9371 3.96711C51.4417 1.48362 64.6125 0.58576 78.2853 3.74372C91.961 6.90234 106.216 14.1376 125.826 28.0694C133.517 33.5332 141.884 37.0507 150.559 40.0121C154.368 41.3124 158.246 42.5086 162.152 43.7136C162.692 43.8803 163.233 44.0472 163.775 44.2145C168.235 45.5929 172.729 47.0045 177.228 48.6232C195.19 55.0851 213.232 64.8468 228.858 88.8518C234.863 98.0772 240.814 106.304 246.206 113.759C248.218 116.54 250.152 119.213 251.982 121.792C258.739 131.311 264.066 139.506 266.8 147.094C269.518 154.637 269.656 161.527 266.081 168.503C262.479 175.531 255.061 182.743 242.43 190.773C224.368 202.257 200.681 204.644 178.057 203.449C157.789 202.378 138.491 198.441 125.027 195.693ZM124.865 196.487C153.341 202.298 208.204 213.493 242.865 191.456C284.336 165.091 271.078 146.762 246.852 113.27C241.462 105.819 235.53 97.6174 229.537 88.41C209.372 57.432 185.171 49.9669 162.392 42.94C149.588 38.9904 137.232 35.1792 126.295 27.4091C87.003 -0.505325 68.871 -1.80716 33.8234 3.16527C-17.3706 10.4285 -2.187 109.725 30.746 160.319C50.5451 190.736 75.5112 192.11 98.6761 193.386C106.202 193.8 113.538 194.204 120.444 195.589C121.834 195.868 123.31 196.17 124.865 196.487Z" fill="white"/>
<path fill-rule="evenodd" clip-rule="evenodd" d="M123.47 193.494C122.124 193.218 120.845 192.956 119.641 192.712C113.605 191.495 107.207 191.136 100.715 190.772L100.306 190.749C93.6529 190.375 86.8947 189.977 80.1967 188.652C66.858 186.013 53.7422 179.696 42.5099 162.44C28.3198 140.64 17.9203 108.314 16.5893 80.6864C15.9238 66.8715 17.5303 54.3129 21.9942 44.8526C26.4402 35.4301 33.7087 29.0899 44.4693 27.5723C59.6116 25.4367 70.9911 24.673 82.8047 27.4151C94.6214 30.1579 106.95 36.4275 123.926 48.5075C130.598 53.255 137.853 56.3128 145.366 58.8866C148.665 60.0168 152.024 61.0569 155.406 62.104C155.873 62.2486 156.341 62.3935 156.809 62.5387C160.669 63.7363 164.557 64.9621 168.45 66.3671C183.983 71.9738 199.582 80.4321 213.108 101.212C218.314 109.21 223.473 116.343 228.146 122.806C229.889 125.215 231.564 127.532 233.149 129.765C239.005 138.016 243.614 145.108 245.981 151.667C248.332 158.182 248.453 164.117 245.382 170.123C242.285 176.181 235.892 182.408 224.976 189.348C209.385 199.26 188.919 201.309 169.348 200.255C151.818 199.31 135.123 195.885 123.47 193.494ZM123.306 194.287C147.952 199.344 195.437 209.088 225.411 190.032C261.273 167.231 249.785 151.345 228.792 122.316C224.122 115.858 218.979 108.82 213.785 100.84C196.309 73.9926 175.363 67.4357 155.645 61.3301C144.561 57.8983 133.867 54.5868 124.396 47.8476C90.3707 23.6368 74.6795 22.4937 44.3562 26.7704C0.0630536 33.0173 13.289 119.033 41.8312 162.881C58.9905 189.243 80.5956 190.455 100.642 191.579C107.155 191.944 113.503 192.3 119.48 193.506C120.683 193.749 121.961 194.011 123.306 194.287Z" fill="white"/>
<path fill-rule="evenodd" clip-rule="evenodd" d="M121.316 175.78C120.232 175.59 119.203 175.409 118.232 175.242C113.378 174.407 108.211 174.251 102.962 174.093L102.634 174.083C97.2573 173.921 91.789 173.742 86.3869 172.833C75.6226 171.021 65.1099 166.312 56.3447 152.973C45.2805 136.135 37.4959 110.962 36.9626 89.2971C36.696 78.4639 38.2441 68.563 42.0527 61.0346C45.8481 53.5321 51.88 48.3916 60.6542 46.9835C72.9546 45.0096 82.1938 44.1841 91.7183 46.1064C101.245 48.0292 111.11 52.7128 124.617 61.8592C129.914 65.4464 135.717 67.6998 141.744 69.5704C144.39 70.3917 147.087 71.1411 149.803 71.8961C150.179 72.0005 150.555 72.1051 150.931 72.2099C154.032 73.0737 157.157 73.9594 160.282 74.9858C172.756 79.0832 185.233 85.4216 195.784 101.478C199.839 107.649 203.872 113.142 207.527 118.12C208.89 119.977 210.201 121.762 211.44 123.484C216.017 129.842 219.614 135.325 221.405 140.436C223.186 145.518 223.169 150.197 220.551 154.996C217.913 159.831 212.6 164.853 203.623 170.516C190.784 178.615 174.156 180.625 158.33 180.183C144.152 179.787 130.701 177.427 121.316 175.78ZM121.189 176.322C141.038 179.805 179.279 186.515 203.916 170.974C233.392 152.379 224.406 140.14 207.987 117.777C204.334 112.802 200.313 107.326 196.266 101.167C182.65 80.4461 165.823 75.769 149.983 71.3665C141.08 68.8919 132.489 66.5041 124.956 61.4029C97.8934 43.0764 85.2155 42.4883 60.5877 46.4405C24.6138 52.2135 33.6241 119.442 55.8621 153.284C69.2314 173.63 86.6946 174.155 102.898 174.643C108.162 174.801 113.293 174.956 118.108 175.785C119.077 175.951 120.105 176.132 121.189 176.322Z" fill="white"/>
<path fill-rule="evenodd" clip-rule="evenodd" d="M120.261 174.311C119.323 174.146 118.432 173.988 117.592 173.843C113.385 173.114 108.909 172.975 104.369 172.833L104.082 172.825C99.429 172.68 94.7022 172.519 90.0328 171.728C80.7339 170.153 71.6512 166.075 64.0666 154.532C54.4847 139.951 47.7298 118.154 47.2495 99.4014C47.0093 90.0245 48.3399 81.4641 51.621 74.9623C54.889 68.4867 60.0834 64.0594 67.6447 62.8521C78.2849 61.1532 86.2673 60.4481 94.4964 62.1182C102.728 63.7888 111.26 67.8477 122.952 75.7789C127.547 78.896 132.578 80.8552 137.798 82.4814C140.09 83.1954 142.426 83.8472 144.777 84.5035C145.102 84.5942 145.427 84.6849 145.753 84.7759C148.437 85.5267 151.14 86.296 153.843 87.1871C164.631 90.7431 175.417 96.2357 184.551 110.135C188.066 115.485 191.563 120.248 194.73 124.563C195.911 126.172 197.046 127.719 198.12 129.21C202.087 134.722 205.198 139.466 206.749 143.884C208.289 148.273 208.277 152.304 206.028 156.436C203.76 160.603 199.18 164.939 191.421 169.834C180.34 176.824 165.972 178.551 152.282 178.155C140.02 177.8 128.384 175.745 120.261 174.311ZM120.134 174.853C137.312 177.886 170.41 183.731 191.715 170.291C217.205 154.211 209.418 143.603 195.19 124.22C192.025 119.908 188.538 115.209 185.031 109.872C173.23 91.9133 158.667 87.8002 144.957 83.9737C137.251 81.8229 129.815 79.7475 123.292 75.3228C99.8573 59.427 88.8862 58.9068 67.5786 62.309C36.4545 67.2784 44.3109 125.514 63.584 154.844C75.1708 172.477 90.2827 172.947 104.304 173.383C108.86 173.525 113.3 173.663 117.467 174.385C118.305 174.53 119.196 174.687 120.134 174.853Z" fill="white"/>
</g>
</svg>
