<svg width="12" height="12" viewBox="0 0 12 12" fill="none" xmlns="http://www.w3.org/2000/svg">
<path d="M5.66054 0.723141C5.79552 0.435607 6.20448 0.435608 6.33946 0.723141L7.76907 3.76859C7.82215 3.88169 7.92808 3.96091 8.05156 3.97989L11.2791 4.47596C11.5807 4.52231 11.7037 4.89026 11.4905 5.10858L9.13228 7.52383C9.04909 7.60903 9.01131 7.72866 9.03048 7.84618L9.58366 11.2377C9.63406 11.5467 9.30604 11.7777 9.03208 11.6262L6.18147 10.0499C6.06855 9.98743 5.93145 9.98743 5.81853 10.0499L2.96792 11.6262C2.69396 11.7777 2.36594 11.5467 2.41634 11.2377L2.96952 7.84618C2.98869 7.72866 2.95091 7.60903 2.86772 7.52383L0.50951 5.10858C0.296341 4.89026 0.419264 4.52231 0.720857 4.47596L3.94844 3.97989C4.07192 3.96091 4.17785 3.88168 4.23093 3.76859L5.66054 0.723141Z" fill="#FCAF23"/>
</svg>
