<svg width="24" height="24" viewBox="0 0 24 24" fill="none" xmlns="http://www.w3.org/2000/svg">
<path d="M19.79 14.9303C17.73 16.9803 14.78 17.6103 12.19 16.8003L7.48 21.5003C7.14 21.8503 6.47 22.0603 5.99 21.9903L3.81 21.6903C3.09 21.5903 2.42 20.9103 2.31 20.1903L2.01 18.0103C1.94 17.5303 2.17 16.8603 2.5 16.5203L7.2 11.8203C6.4 9.22031 7.02 6.27031 9.08 4.22031C12.03 1.27031 16.82 1.27031 19.78 4.22031C22.74 7.17031 22.74 11.9803 19.79 14.9303Z" stroke="#6D48FF" stroke-width="1.5" stroke-miterlimit="10" stroke-linecap="round" stroke-linejoin="round"/>
<path d="M6.89 17.4902L9.19 19.7902" stroke="#6D48FF" stroke-width="1.5" stroke-miterlimit="10" stroke-linecap="round" stroke-linejoin="round"/>
<path d="M14.5 11C15.3284 11 16 10.3284 16 9.5C16 8.67157 15.3284 8 14.5 8C13.6716 8 13 8.67157 13 9.5C13 10.3284 13.6716 11 14.5 11Z" stroke="#6D48FF" stroke-width="1.5" stroke-linecap="round" stroke-linejoin="round"/>
</svg>
