<svg width="28" height="28" viewBox="0 0 28 28" fill="none" xmlns="http://www.w3.org/2000/svg">
<g id="vuesax/bold/wallet-2">
<g id="wallet-2">
<path id="Vector" d="M25.2505 12.8409V15.1584C25.2505 15.7771 24.7555 16.2834 24.1255 16.3059H21.9205C20.7055 16.3059 19.5917 15.4171 19.4905 14.2021C19.423 13.4934 19.693 12.8296 20.1655 12.3684C20.5817 11.9409 21.1555 11.6934 21.7855 11.6934H24.1255C24.7555 11.7159 25.2505 12.2221 25.2505 12.8409Z" fill="#6D48FF"/>
<path id="Vector_2" d="M23.5287 17.9938H21.92C19.7825 17.9938 17.9825 16.385 17.8025 14.3375C17.7013 13.1675 18.1288 11.9975 18.9837 11.165C19.7038 10.4225 20.705 10.0062 21.785 10.0062H23.5287C23.855 10.0062 24.125 9.73625 24.0912 9.41C23.8438 6.67625 22.0325 4.80875 19.3438 4.49375C19.0737 4.44875 18.7925 4.4375 18.5 4.4375H8.375C8.06 4.4375 7.75625 4.46 7.46375 4.505C4.595 4.865 2.75 7.0025 2.75 10.0625V17.9375C2.75 21.0425 5.27 23.5625 8.375 23.5625H18.5C21.65 23.5625 23.8212 21.5938 24.0912 18.59C24.125 18.2638 23.855 17.9938 23.5287 17.9938ZM15.125 11.4688H8.375C7.91375 11.4688 7.53125 11.0862 7.53125 10.625C7.53125 10.1638 7.91375 9.78125 8.375 9.78125H15.125C15.5863 9.78125 15.9688 10.1638 15.9688 10.625C15.9688 11.0862 15.5863 11.4688 15.125 11.4688Z" fill="#6D48FF"/>
</g>
</g>
</svg>
