<svg width="38" height="38" viewBox="0 0 38 38" fill="none" xmlns="http://www.w3.org/2000/svg">
<g clip-path="url(#clip0_40_10967)">
<path d="M23.2293 31.2525H14.7708C14.1569 31.2525 13.6575 31.7522 13.6575 32.3664V34H24.3426V32.3664C24.3426 31.7522 23.8432 31.2525 23.2293 31.2525ZM35.9349 11.1841C35.8618 11.1841 35.7896 11.1881 35.7184 11.1956C36.5805 12.1823 37.1515 13.4296 37.2958 14.8024C37.727 14.4235 38 13.8683 38 13.2503C38 12.111 37.0736 11.1841 35.9349 11.1841ZM5.08458 11.6127C3.06108 10.5044 1.64343 8.42187 1.46627 6C0.582024 6.60177 0 7.61648 0 8.76478C0 10.6073 1.49825 12.1063 3.33984 12.1063C3.95594 12.107 4.56006 11.9361 5.08458 11.6127Z" fill="white"/>
<path d="M12.0685 7.26323C13.0298 4.97142 11.9449 2.34953 9.64529 1.40708C7.34564 0.464621 4.70206 1.55849 3.7407 3.85031C2.77934 6.14212 3.86424 8.76401 6.16389 9.70646C8.46354 10.6489 11.1071 9.55505 12.0685 7.26323Z" fill="white"/>
<path d="M17.5 13C19.4299 13 21 11.4299 21 9.50004C21 7.57016 19.4299 6 17.5 6C15.5701 6 14 7.57016 14 9.50004C14 11.4299 15.5701 13 17.5 13Z" fill="white"/>
<path d="M28.5 7C30.433 7 32 5.433 32 3.5C32 1.567 30.433 0 28.5 0C26.567 0 25 1.567 25 3.5C25 5.433 26.567 7 28.5 7Z" fill="white"/>
<path d="M34.8865 18.7388H31.2789C30.3774 17.0302 29.6324 15.6172 29.6324 15.6172C28.7682 13.9784 27.159 13 25.3276 13H12.6172C10.7871 13 9.17839 13.9773 8.31381 15.6144C7.75759 16.6676 7.20248 17.7214 6.647 18.775H3.11348C2.49854 18.775 2 19.2723 2 19.8856C2 20.4989 2.49854 20.9962 3.11348 20.9962C3.11348 20.9962 5.47829 20.9913 5.47369 21C6.11216 20.7742 6.82078 20.5672 7.60556 20.3773C10.6929 19.6305 14.7269 19.2192 18.9646 19.2192C23.2344 19.2192 27.269 19.6196 30.3255 20.3466C31.1011 20.5311 31.8106 20.7369 32.4522 20.9622C32.4479 20.9542 34.8865 20.9599 34.8865 20.9599C35.5015 20.9599 36 20.4627 36 19.8494C36 19.2361 35.5015 18.7388 34.8865 18.7388Z" fill="white"/>
<path d="M28.1201 11.875C29.5609 12.4899 30.7638 13.5841 31.5437 15.0467C31.5437 15.0467 32.9046 17.5989 33.3913 18.5113C34.3709 17.7377 35 16.5493 35 15.2181C35 12.8922 33.0815 11 30.7235 11C29.7444 11 28.8418 11.327 28.1201 11.875ZM33.264 24.0745C32.4202 23.5971 31.2415 23.1784 29.7612 22.8302C26.8885 22.1543 23.0633 21.7822 18.99 21.7822C14.9515 21.7822 11.1297 22.1644 8.22868 22.8584C4.71576 23.6987 3.00811 24.8692 3.00811 26.4348L3 30.0729C3 31.8775 4.48844 33.3456 6.31797 33.3456H11.4805V31.7456C11.4805 29.9411 12.969 28.473 14.7985 28.473H23.2017C25.0312 28.473 26.5196 29.9411 26.5196 31.7456V33.3456H31.682C33.5116 33.3456 35 31.8775 35 30.0729V26.4366C35 25.521 34.416 24.7262 33.264 24.0745ZM8.73088 28.9169C8.072 28.9169 7.53456 28.3869 7.53456 27.737C7.53456 27.0871 8.07193 26.5571 8.73088 26.5571C9.38975 26.5571 9.92719 27.0871 9.92719 27.737C9.92711 28.3869 9.38975 28.9169 8.73088 28.9169ZM29.3061 28.913C28.6472 28.913 28.1098 28.383 28.1098 27.7331C28.1098 27.0832 28.6471 26.5532 29.3061 26.5532C29.965 26.5532 30.5023 27.0832 30.5023 27.7331C30.5023 28.383 29.9649 28.913 29.3061 28.913ZM4.03226 35.0376V35.274C4.03226 36.7771 5.27207 38 6.79598 38H10.1165C11.5537 38 12.7377 36.912 12.8678 35.5273H6.31797C5.52927 35.5278 4.74971 35.3607 4.03226 35.0376ZM25.1322 35.5273C25.2623 36.912 26.4463 38 27.8836 38H31.2041C32.728 38 33.9677 36.7771 33.9677 35.274V35.0377C33.2503 35.3608 32.4707 35.5278 31.682 35.5274H25.1322V35.5273Z" fill="white"/>
</g>
<defs>
<clipPath id="clip0_40_10967">
<rect width="38" height="38" fill="white"/>
</clipPath>
</defs>
</svg>
