<svg width="164" height="13" viewBox="0 0 164 13" fill="none" xmlns="http://www.w3.org/2000/svg">
<path d="M8.9048 9.932C8.9048 9.44667 9.0728 9.036 9.4088 8.7C9.7448 8.364 10.1555 8.196 10.6408 8.196C11.1261 8.196 11.5368 8.364 11.8728 8.7C12.2088 9.036 12.3768 9.44667 12.3768 9.932C12.3768 10.4173 12.2088 10.828 11.8728 11.164C11.5368 11.5 11.1261 11.668 10.6408 11.668C10.1555 11.668 9.7448 11.5 9.4088 11.164C9.0728 10.828 8.9048 10.4173 8.9048 9.932ZM2.9968 12.452C2.7168 12.788 2.37146 12.956 1.9608 12.956C1.58746 12.956 1.27013 12.8253 1.0088 12.564C0.747464 12.3027 0.616797 11.9853 0.616797 11.612C0.616797 11.276 0.71013 11.0053 0.896797 10.8L7.7008 1.644C8.01813 1.21467 8.43813 0.869333 8.9608 0.608C9.48346 0.327999 10.0435 0.187999 10.6408 0.187999C11.2008 0.187999 11.7328 0.309332 12.2368 0.551999C12.7408 0.794666 13.1515 1.13067 13.4688 1.56L20.2728 10.66C20.3848 10.7907 20.4781 10.94 20.5528 11.108C20.6275 11.2573 20.6648 11.4253 20.6648 11.612C20.6648 11.9853 20.5341 12.3027 20.2728 12.564C20.0115 12.8253 19.6941 12.956 19.3208 12.956C18.8728 12.956 18.5181 12.7787 18.2568 12.424L11.7328 3.716C11.6021 3.56667 11.4341 3.408 11.2288 3.24C11.0421 3.05333 10.8461 2.96 10.6408 2.96C10.4355 2.96 10.2301 3.05333 10.0248 3.24C9.83813 3.408 9.6888 3.56667 9.5768 3.716L2.9968 12.452ZM26.1642 6.852C26.1642 7.188 26.2015 7.56133 26.2762 7.972C26.3695 8.364 26.5282 8.728 26.7522 9.064C26.9948 9.4 27.3122 9.68933 27.7042 9.932C28.1148 10.156 28.6468 10.268 29.3002 10.268H40.4442C41.0788 10.268 41.6015 10.156 42.0122 9.932C42.4228 9.68933 42.7402 9.4 42.9642 9.064C43.2068 8.728 43.3655 8.364 43.4402 7.972C43.5335 7.56133 43.5802 7.188 43.5802 6.852V2.092C43.5802 1.71867 43.7108 1.40133 43.9722 1.14C44.2335 0.878666 44.5508 0.748 44.9242 0.748C45.2975 0.748 45.6148 0.878666 45.8762 1.14C46.1375 1.40133 46.2682 1.71867 46.2682 2.092V6.852C46.2682 7.56133 46.1468 8.28 45.9042 9.008C45.6802 9.71733 45.3442 10.3707 44.8962 10.968C44.4482 11.5467 43.9068 12.0227 43.2722 12.396C42.6375 12.7693 41.9188 12.956 41.1162 12.956H28.3482C27.5828 12.9187 26.9015 12.7133 26.3042 12.34C25.7068 11.948 25.1935 11.4627 24.7642 10.884C24.3535 10.3053 24.0362 9.66133 23.8122 8.952C23.5882 8.24267 23.4762 7.54267 23.4762 6.852V2.092C23.4762 1.71867 23.6068 1.40133 23.8682 1.14C24.1295 0.878666 24.4468 0.748 24.8202 0.748C25.1935 0.748 25.5108 0.878666 25.7722 1.14C26.0335 1.40133 26.1642 1.71867 26.1642 2.092V6.852ZM69.6779 0.748C70.0513 0.748 70.3686 0.878666 70.6299 1.14C70.8913 1.40133 71.0219 1.71867 71.0219 2.092C71.0219 2.44667 70.9006 2.75467 70.6579 3.016C70.4153 3.25867 70.1259 3.39867 69.7899 3.436H64.1619C63.6019 3.47333 63.1353 3.61333 62.7619 3.856C62.4073 4.08 62.1273 4.36 61.9219 4.696C61.7166 5.032 61.5766 5.396 61.5019 5.788C61.4273 6.18 61.3899 6.53467 61.3899 6.852V11.612C61.3899 11.9853 61.2593 12.3027 60.9979 12.564C60.7366 12.8253 60.4193 12.956 60.0459 12.956C59.6726 12.956 59.3553 12.8253 59.0939 12.564C58.8326 12.3027 58.7019 11.9853 58.7019 11.612V6.852C58.7019 6.27333 58.7766 5.69467 58.9259 5.116C59.0753 4.51867 59.2993 3.95867 59.5979 3.436H50.4139C50.0406 3.436 49.7233 3.30533 49.4619 3.044C49.2006 2.78267 49.0699 2.46533 49.0699 2.092C49.0699 1.71867 49.2006 1.40133 49.4619 1.14C49.7233 0.878666 50.0406 0.748 50.4139 0.748H69.6779ZM90.1571 10.268C90.7917 10.268 91.3144 10.156 91.7251 9.932C92.1357 9.68933 92.4531 9.4 92.6771 9.064C92.9197 8.728 93.0784 8.364 93.1531 7.972C93.2464 7.56133 93.2931 7.188 93.2931 6.852C93.2931 6.516 93.2464 6.152 93.1531 5.76C93.0784 5.34933 92.9197 4.976 92.6771 4.64C92.4531 4.304 92.1357 4.024 91.7251 3.8C91.3144 3.55733 90.7917 3.436 90.1571 3.436H78.8451C78.1917 3.436 77.6597 3.55733 77.2491 3.8C76.8571 4.024 76.5397 4.304 76.2971 4.64C76.0731 4.976 75.9144 5.34933 75.8211 5.76C75.7464 6.152 75.7091 6.516 75.7091 6.852C75.7091 7.188 75.7464 7.56133 75.8211 7.972C75.9144 8.364 76.0731 8.728 76.2971 9.064C76.5397 9.4 76.8571 9.68933 77.2491 9.932C77.6597 10.156 78.1917 10.268 78.8451 10.268H90.1571ZM95.8971 6.852C95.8971 7.56133 95.7757 8.28 95.5331 9.008C95.3091 9.71733 94.9731 10.3707 94.5251 10.968C94.0771 11.5467 93.5357 12.0227 92.9011 12.396C92.2664 12.7693 91.5477 12.956 90.7451 12.956H77.9771C77.2117 12.9187 76.5304 12.7133 75.9331 12.34C75.3357 11.948 74.8224 11.4627 74.3931 10.884C73.9824 10.3053 73.6651 9.66133 73.4411 8.952C73.2171 8.24267 73.1051 7.54267 73.1051 6.852C73.1051 6.14267 73.2171 5.43333 73.4411 4.724C73.6837 3.996 74.0291 3.34267 74.4771 2.764C74.9251 2.16667 75.4664 1.68133 76.1011 1.308C76.7357 0.934666 77.4544 0.748 78.2571 0.748H91.0251C91.7904 0.785333 92.4717 0.999999 93.0691 1.392C93.6664 1.76533 94.1704 2.24133 94.5811 2.82C95.0104 3.39867 95.3371 4.04267 95.5611 4.752C95.7851 5.46133 95.8971 6.16133 95.8971 6.852ZM129.532 10.268C129.812 10.268 130.055 10.1653 130.26 9.96C130.484 9.75467 130.596 9.512 130.596 9.232C130.596 8.93333 130.484 8.69067 130.26 8.504C130.055 8.29867 129.812 8.196 129.532 8.196H113.992V9.568C113.992 9.75467 114.067 9.92267 114.216 10.072C114.384 10.2027 114.599 10.268 114.86 10.268H129.532ZM111.304 2.092C111.304 1.71867 111.435 1.40133 111.696 1.14C111.958 0.878666 112.275 0.748 112.648 0.748H129.42C129.943 0.748 130.428 0.850666 130.876 1.056C131.343 1.24267 131.744 1.504 132.08 1.84C132.435 2.176 132.706 2.57733 132.892 3.044C133.098 3.492 133.2 3.97733 133.2 4.5C133.2 4.96667 133.116 5.40533 132.948 5.816C132.799 6.208 132.594 6.56267 132.332 6.88C132.594 7.19733 132.799 7.56133 132.948 7.972C133.116 8.364 133.2 8.784 133.2 9.232C133.2 9.75467 133.098 10.24 132.892 10.688C132.706 11.136 132.435 11.528 132.08 11.864C131.744 12.2 131.343 12.4707 130.876 12.676C130.428 12.8627 129.943 12.956 129.42 12.956H114.72C114.31 12.956 113.899 12.872 113.488 12.704C113.078 12.5173 112.714 12.2653 112.396 11.948C112.079 11.6307 111.818 11.248 111.612 10.8C111.407 10.352 111.304 9.848 111.304 9.288V6.768C111.304 6.264 111.444 5.928 111.724 5.76C112.023 5.592 112.48 5.508 113.096 5.508H129.56C129.84 5.508 130.083 5.41467 130.288 5.228C130.494 5.04133 130.596 4.79867 130.596 4.5C130.596 4.22 130.484 3.97733 130.26 3.772C130.055 3.548 129.812 3.436 129.532 3.436H112.648C112.275 3.436 111.958 3.30533 111.696 3.044C111.435 2.78267 111.304 2.46533 111.304 2.092ZM138.684 11.612C138.684 11.9853 138.553 12.3027 138.292 12.564C138.03 12.8253 137.713 12.956 137.34 12.956C136.966 12.956 136.649 12.8253 136.388 12.564C136.126 12.3027 135.996 11.9853 135.996 11.612V2.092C135.996 1.71867 136.126 1.40133 136.388 1.14C136.649 0.878666 136.966 0.748 137.34 0.748C137.713 0.748 138.03 0.878666 138.292 1.14C138.553 1.40133 138.684 1.71867 138.684 2.092V11.612ZM159.496 8.196C160 8.51333 160.513 8.85867 161.036 9.232C161.558 9.58667 162.09 9.97867 162.632 10.408C162.837 10.5573 163.014 10.7347 163.164 10.94C163.313 11.1267 163.388 11.3507 163.388 11.612C163.388 11.9853 163.257 12.3027 162.996 12.564C162.734 12.8253 162.417 12.956 162.044 12.956C161.726 12.956 161.409 12.8253 161.092 12.564C160.326 12.004 159.542 11.4627 158.74 10.94C157.937 10.4173 157.097 9.95067 156.22 9.54C155.361 9.12933 154.465 8.80267 153.532 8.56C152.598 8.31733 151.628 8.196 150.62 8.196H145.048C144.805 8.23333 144.6 8.34533 144.432 8.532C144.264 8.71867 144.18 8.952 144.18 9.232V11.612C144.18 11.9853 144.04 12.3027 143.76 12.564C143.498 12.8253 143.19 12.956 142.836 12.956C142.462 12.956 142.145 12.8253 141.884 12.564C141.622 12.3027 141.492 11.9853 141.492 11.612V8.924C141.492 8.45733 141.576 8.01867 141.744 7.608C141.93 7.17867 142.173 6.81467 142.472 6.516C142.77 6.19867 143.125 5.956 143.536 5.788C143.946 5.60133 144.394 5.508 144.88 5.508H159.72C160 5.508 160.242 5.41467 160.448 5.228C160.672 5.02267 160.784 4.77067 160.784 4.472C160.784 4.192 160.672 3.94933 160.448 3.744C160.242 3.53867 160 3.436 159.72 3.436H142.836C142.462 3.436 142.145 3.30533 141.884 3.044C141.622 2.78267 141.492 2.46533 141.492 2.092C141.492 1.71867 141.622 1.40133 141.884 1.14C142.145 0.878666 142.462 0.748 142.836 0.748H159.608C160.13 0.748 160.616 0.850666 161.064 1.056C161.53 1.24267 161.932 1.504 162.268 1.84C162.622 2.176 162.893 2.568 163.08 3.016C163.285 3.464 163.388 3.94933 163.388 4.472C163.388 4.99467 163.285 5.48 163.08 5.928C162.893 6.376 162.622 6.768 162.268 7.104C161.932 7.44 161.53 7.71067 161.064 7.916C160.616 8.10267 160.13 8.196 159.608 8.196H159.496Z" fill="#080B11"/>
</svg>
